<svg xmlns="http://www.w3.org/2000/svg" xmlns:xlink="http://www.w3.org/1999/xlink" width="500" zoomAndPan="magnify" viewBox="0 0 375 374.999991" height="500" preserveAspectRatio="xMidYMid meet" version="1.0"><defs><g/><linearGradient x1="0" gradientTransform="matrix(0.75, 0, 0, 0.75, 0.0000045, 0)" y1="250" x2="499.999979" gradientUnits="userSpaceOnUse" y2="250" id="d28a08428c"><stop stop-opacity="1" stop-color="rgb(93.728638%, 81.959534%, 94.509888%)" offset="0"/><stop stop-opacity="1" stop-color="rgb(93.574524%, 81.744385%, 94.393921%)" offset="0.00390625"/><stop stop-opacity="1" stop-color="rgb(93.42041%, 81.530762%, 94.27948%)" offset="0.0078125"/><stop stop-opacity="1" stop-color="rgb(93.264771%, 81.315613%, 94.163513%)" offset="0.0117187"/><stop stop-opacity="1" stop-color="rgb(93.110657%, 81.10199%, 94.049072%)" offset="0.015625"/><stop stop-opacity="1" stop-color="rgb(92.955017%, 80.886841%, 93.934631%)" offset="0.0195312"/><stop stop-opacity="1" stop-color="rgb(92.800903%, 80.673218%, 93.82019%)" offset="0.0234375"/><stop stop-opacity="1" stop-color="rgb(92.645264%, 80.458069%, 93.704224%)" offset="0.0273438"/><stop stop-opacity="1" stop-color="rgb(92.49115%, 80.24292%, 93.589783%)" offset="0.03125"/><stop stop-opacity="1" stop-color="rgb(92.33551%, 80.027771%, 93.475342%)" offset="0.0351562"/><stop stop-opacity="1" stop-color="rgb(92.181396%, 79.814148%, 93.360901%)" offset="0.0390625"/><stop stop-opacity="1" stop-color="rgb(92.027283%, 79.598999%, 93.244934%)" offset="0.0429687"/><stop stop-opacity="1" stop-color="rgb(91.873169%, 79.385376%, 93.130493%)" offset="0.046875"/><stop stop-opacity="1" stop-color="rgb(91.717529%, 79.170227%, 93.016052%)" offset="0.0507812"/><stop stop-opacity="1" stop-color="rgb(91.563416%, 78.956604%, 92.901611%)" offset="0.0546875"/><stop stop-opacity="1" stop-color="rgb(91.407776%, 78.741455%, 92.785645%)" offset="0.0585938"/><stop stop-opacity="1" stop-color="rgb(91.253662%, 78.527832%, 92.671204%)" offset="0.0625"/><stop stop-opacity="1" stop-color="rgb(91.098022%, 78.312683%, 92.555237%)" offset="0.0664062"/><stop stop-opacity="1" stop-color="rgb(90.943909%, 78.09906%, 92.440796%)" offset="0.0703125"/><stop stop-opacity="1" stop-color="rgb(90.788269%, 77.883911%, 92.326355%)" offset="0.0742187"/><stop stop-opacity="1" stop-color="rgb(90.634155%, 77.670288%, 92.211914%)" offset="0.078125"/><stop stop-opacity="1" stop-color="rgb(90.480042%, 77.455139%, 92.095947%)" offset="0.0820312"/><stop stop-opacity="1" stop-color="rgb(90.325928%, 77.241516%, 91.981506%)" offset="0.0859375"/><stop stop-opacity="1" stop-color="rgb(90.170288%, 77.026367%, 91.867065%)" offset="0.0898437"/><stop stop-opacity="1" stop-color="rgb(90.016174%, 76.812744%, 91.752625%)" offset="0.09375"/><stop stop-opacity="1" stop-color="rgb(89.860535%, 76.597595%, 91.636658%)" offset="0.0976562"/><stop stop-opacity="1" stop-color="rgb(89.706421%, 76.383972%, 91.522217%)" offset="0.101562"/><stop stop-opacity="1" stop-color="rgb(89.550781%, 76.168823%, 91.40625%)" offset="0.105469"/><stop stop-opacity="1" stop-color="rgb(89.396667%, 75.9552%, 91.291809%)" offset="0.109375"/><stop stop-opacity="1" stop-color="rgb(89.241028%, 75.740051%, 91.177368%)" offset="0.113281"/><stop stop-opacity="1" stop-color="rgb(89.086914%, 75.524902%, 91.062927%)" offset="0.117188"/><stop stop-opacity="1" stop-color="rgb(88.9328%, 75.309753%, 90.94696%)" offset="0.121094"/><stop stop-opacity="1" stop-color="rgb(88.778687%, 75.09613%, 90.83252%)" offset="0.125"/><stop stop-opacity="1" stop-color="rgb(88.623047%, 74.880981%, 90.718079%)" offset="0.128906"/><stop stop-opacity="1" stop-color="rgb(88.468933%, 74.667358%, 90.603638%)" offset="0.132812"/><stop stop-opacity="1" stop-color="rgb(88.313293%, 74.452209%, 90.487671%)" offset="0.136719"/><stop stop-opacity="1" stop-color="rgb(88.15918%, 74.238586%, 90.37323%)" offset="0.140625"/><stop stop-opacity="1" stop-color="rgb(88.00354%, 74.023438%, 90.258789%)" offset="0.144531"/><stop stop-opacity="1" stop-color="rgb(87.849426%, 73.809814%, 90.144348%)" offset="0.148437"/><stop stop-opacity="1" stop-color="rgb(87.693787%, 73.594666%, 90.028381%)" offset="0.152344"/><stop stop-opacity="1" stop-color="rgb(87.539673%, 73.381042%, 89.91394%)" offset="0.15625"/><stop stop-opacity="1" stop-color="rgb(87.385559%, 73.165894%, 89.797974%)" offset="0.160156"/><stop stop-opacity="1" stop-color="rgb(87.231445%, 72.952271%, 89.683533%)" offset="0.164062"/><stop stop-opacity="1" stop-color="rgb(87.075806%, 72.737122%, 89.569092%)" offset="0.167969"/><stop stop-opacity="1" stop-color="rgb(86.921692%, 72.523499%, 89.454651%)" offset="0.171875"/><stop stop-opacity="1" stop-color="rgb(86.766052%, 72.30835%, 89.338684%)" offset="0.175781"/><stop stop-opacity="1" stop-color="rgb(86.611938%, 72.094727%, 89.224243%)" offset="0.179687"/><stop stop-opacity="1" stop-color="rgb(86.456299%, 71.879578%, 89.109802%)" offset="0.183594"/><stop stop-opacity="1" stop-color="rgb(86.302185%, 71.665955%, 88.995361%)" offset="0.1875"/><stop stop-opacity="1" stop-color="rgb(86.146545%, 71.450806%, 88.879395%)" offset="0.191406"/><stop stop-opacity="1" stop-color="rgb(85.992432%, 71.237183%, 88.764954%)" offset="0.195312"/><stop stop-opacity="1" stop-color="rgb(85.838318%, 71.022034%, 88.650513%)" offset="0.199219"/><stop stop-opacity="1" stop-color="rgb(85.684204%, 70.808411%, 88.536072%)" offset="0.203125"/><stop stop-opacity="1" stop-color="rgb(85.528564%, 70.593262%, 88.420105%)" offset="0.207031"/><stop stop-opacity="1" stop-color="rgb(85.374451%, 70.378113%, 88.305664%)" offset="0.210938"/><stop stop-opacity="1" stop-color="rgb(85.218811%, 70.162964%, 88.189697%)" offset="0.214844"/><stop stop-opacity="1" stop-color="rgb(85.064697%, 69.949341%, 88.075256%)" offset="0.21875"/><stop stop-opacity="1" stop-color="rgb(84.909058%, 69.734192%, 87.960815%)" offset="0.222656"/><stop stop-opacity="1" stop-color="rgb(84.754944%, 69.520569%, 87.846375%)" offset="0.226562"/><stop stop-opacity="1" stop-color="rgb(84.599304%, 69.30542%, 87.730408%)" offset="0.230469"/><stop stop-opacity="1" stop-color="rgb(84.44519%, 69.091797%, 87.615967%)" offset="0.234375"/><stop stop-opacity="1" stop-color="rgb(84.289551%, 68.876648%, 87.501526%)" offset="0.238281"/><stop stop-opacity="1" stop-color="rgb(84.135437%, 68.663025%, 87.387085%)" offset="0.242188"/><stop stop-opacity="1" stop-color="rgb(83.981323%, 68.447876%, 87.271118%)" offset="0.246094"/><stop stop-opacity="1" stop-color="rgb(83.827209%, 68.234253%, 87.156677%)" offset="0.25"/><stop stop-opacity="1" stop-color="rgb(83.67157%, 68.019104%, 87.04071%)" offset="0.253906"/><stop stop-opacity="1" stop-color="rgb(83.517456%, 67.805481%, 86.92627%)" offset="0.257812"/><stop stop-opacity="1" stop-color="rgb(83.361816%, 67.590332%, 86.811829%)" offset="0.261719"/><stop stop-opacity="1" stop-color="rgb(83.207703%, 67.376709%, 86.697388%)" offset="0.265625"/><stop stop-opacity="1" stop-color="rgb(83.052063%, 67.16156%, 86.581421%)" offset="0.269531"/><stop stop-opacity="1" stop-color="rgb(82.897949%, 66.947937%, 86.46698%)" offset="0.273437"/><stop stop-opacity="1" stop-color="rgb(82.74231%, 66.732788%, 86.352539%)" offset="0.277344"/><stop stop-opacity="1" stop-color="rgb(82.588196%, 66.519165%, 86.238098%)" offset="0.28125"/><stop stop-opacity="1" stop-color="rgb(82.434082%, 66.304016%, 86.122131%)" offset="0.285156"/><stop stop-opacity="1" stop-color="rgb(82.279968%, 66.090393%, 86.00769%)" offset="0.289062"/><stop stop-opacity="1" stop-color="rgb(82.124329%, 65.875244%, 85.89325%)" offset="0.292969"/><stop stop-opacity="1" stop-color="rgb(81.970215%, 65.660095%, 85.778809%)" offset="0.296875"/><stop stop-opacity="1" stop-color="rgb(81.814575%, 65.444946%, 85.662842%)" offset="0.300781"/><stop stop-opacity="1" stop-color="rgb(81.660461%, 65.231323%, 85.548401%)" offset="0.304687"/><stop stop-opacity="1" stop-color="rgb(81.504822%, 65.016174%, 85.432434%)" offset="0.308594"/><stop stop-opacity="1" stop-color="rgb(81.350708%, 64.802551%, 85.317993%)" offset="0.3125"/><stop stop-opacity="1" stop-color="rgb(81.195068%, 64.587402%, 85.203552%)" offset="0.316406"/><stop stop-opacity="1" stop-color="rgb(81.040955%, 64.373779%, 85.089111%)" offset="0.320312"/><stop stop-opacity="1" stop-color="rgb(80.886841%, 64.15863%, 84.973145%)" offset="0.324219"/><stop stop-opacity="1" stop-color="rgb(80.732727%, 63.945007%, 84.858704%)" offset="0.328125"/><stop stop-opacity="1" stop-color="rgb(80.577087%, 63.729858%, 84.744263%)" offset="0.332031"/><stop stop-opacity="1" stop-color="rgb(80.422974%, 63.516235%, 84.629822%)" offset="0.335937"/><stop stop-opacity="1" stop-color="rgb(80.267334%, 63.301086%, 84.513855%)" offset="0.339844"/><stop stop-opacity="1" stop-color="rgb(80.11322%, 63.087463%, 84.399414%)" offset="0.34375"/><stop stop-opacity="1" stop-color="rgb(79.957581%, 62.872314%, 84.284973%)" offset="0.347656"/><stop stop-opacity="1" stop-color="rgb(79.803467%, 62.658691%, 84.170532%)" offset="0.351562"/><stop stop-opacity="1" stop-color="rgb(79.647827%, 62.443542%, 84.054565%)" offset="0.355469"/><stop stop-opacity="1" stop-color="rgb(79.493713%, 62.229919%, 83.940125%)" offset="0.359375"/><stop stop-opacity="1" stop-color="rgb(79.3396%, 62.014771%, 83.824158%)" offset="0.363281"/><stop stop-opacity="1" stop-color="rgb(79.185486%, 61.801147%, 83.709717%)" offset="0.367187"/><stop stop-opacity="1" stop-color="rgb(79.029846%, 61.585999%, 83.595276%)" offset="0.371094"/><stop stop-opacity="1" stop-color="rgb(78.875732%, 61.372375%, 83.480835%)" offset="0.375"/><stop stop-opacity="1" stop-color="rgb(78.720093%, 61.157227%, 83.364868%)" offset="0.378906"/><stop stop-opacity="1" stop-color="rgb(78.565979%, 60.942078%, 83.250427%)" offset="0.382812"/><stop stop-opacity="1" stop-color="rgb(78.410339%, 60.726929%, 83.135986%)" offset="0.386719"/><stop stop-opacity="1" stop-color="rgb(78.256226%, 60.513306%, 83.021545%)" offset="0.390625"/><stop stop-opacity="1" stop-color="rgb(78.100586%, 60.298157%, 82.905579%)" offset="0.394531"/><stop stop-opacity="1" stop-color="rgb(77.946472%, 60.084534%, 82.791138%)" offset="0.398438"/><stop stop-opacity="1" stop-color="rgb(77.792358%, 59.869385%, 82.675171%)" offset="0.402344"/><stop stop-opacity="1" stop-color="rgb(77.638245%, 59.655762%, 82.56073%)" offset="0.40625"/><stop stop-opacity="1" stop-color="rgb(77.482605%, 59.440613%, 82.446289%)" offset="0.410156"/><stop stop-opacity="1" stop-color="rgb(77.328491%, 59.22699%, 82.331848%)" offset="0.414062"/><stop stop-opacity="1" stop-color="rgb(77.172852%, 59.011841%, 82.215881%)" offset="0.417969"/><stop stop-opacity="1" stop-color="rgb(77.018738%, 58.798218%, 82.10144%)" offset="0.421875"/><stop stop-opacity="1" stop-color="rgb(76.863098%, 58.583069%, 81.987%)" offset="0.425781"/><stop stop-opacity="1" stop-color="rgb(76.708984%, 58.369446%, 81.872559%)" offset="0.429688"/><stop stop-opacity="1" stop-color="rgb(76.553345%, 58.154297%, 81.756592%)" offset="0.433594"/><stop stop-opacity="1" stop-color="rgb(76.399231%, 57.940674%, 81.642151%)" offset="0.4375"/><stop stop-opacity="1" stop-color="rgb(76.245117%, 57.725525%, 81.52771%)" offset="0.441406"/><stop stop-opacity="1" stop-color="rgb(76.091003%, 57.511902%, 81.413269%)" offset="0.445312"/><stop stop-opacity="1" stop-color="rgb(75.935364%, 57.296753%, 81.297302%)" offset="0.449219"/><stop stop-opacity="1" stop-color="rgb(75.78125%, 57.08313%, 81.182861%)" offset="0.453125"/><stop stop-opacity="1" stop-color="rgb(75.62561%, 56.867981%, 81.066895%)" offset="0.457031"/><stop stop-opacity="1" stop-color="rgb(75.471497%, 56.654358%, 80.952454%)" offset="0.460938"/><stop stop-opacity="1" stop-color="rgb(75.315857%, 56.439209%, 80.838013%)" offset="0.464844"/><stop stop-opacity="1" stop-color="rgb(75.161743%, 56.225586%, 80.723572%)" offset="0.46875"/><stop stop-opacity="1" stop-color="rgb(75.006104%, 56.010437%, 80.607605%)" offset="0.472656"/><stop stop-opacity="1" stop-color="rgb(74.85199%, 55.795288%, 80.493164%)" offset="0.476562"/><stop stop-opacity="1" stop-color="rgb(74.697876%, 55.580139%, 80.378723%)" offset="0.480469"/><stop stop-opacity="1" stop-color="rgb(74.543762%, 55.366516%, 80.264282%)" offset="0.484375"/><stop stop-opacity="1" stop-color="rgb(74.388123%, 55.151367%, 80.148315%)" offset="0.488281"/><stop stop-opacity="1" stop-color="rgb(74.234009%, 54.937744%, 80.033875%)" offset="0.492188"/><stop stop-opacity="1" stop-color="rgb(74.078369%, 54.722595%, 79.919434%)" offset="0.496094"/><stop stop-opacity="1" stop-color="rgb(73.924255%, 54.508972%, 79.804993%)" offset="0.5"/><stop stop-opacity="1" stop-color="rgb(73.768616%, 54.293823%, 79.689026%)" offset="0.503906"/><stop stop-opacity="1" stop-color="rgb(73.614502%, 54.0802%, 79.574585%)" offset="0.507812"/><stop stop-opacity="1" stop-color="rgb(73.458862%, 53.865051%, 79.458618%)" offset="0.511719"/><stop stop-opacity="1" stop-color="rgb(73.304749%, 53.651428%, 79.344177%)" offset="0.515625"/><stop stop-opacity="1" stop-color="rgb(73.150635%, 53.436279%, 79.229736%)" offset="0.519531"/><stop stop-opacity="1" stop-color="rgb(72.996521%, 53.222656%, 79.115295%)" offset="0.523437"/><stop stop-opacity="1" stop-color="rgb(72.840881%, 53.007507%, 78.999329%)" offset="0.527344"/><stop stop-opacity="1" stop-color="rgb(72.686768%, 52.793884%, 78.884888%)" offset="0.53125"/><stop stop-opacity="1" stop-color="rgb(72.531128%, 52.578735%, 78.770447%)" offset="0.535156"/><stop stop-opacity="1" stop-color="rgb(72.377014%, 52.365112%, 78.656006%)" offset="0.539062"/><stop stop-opacity="1" stop-color="rgb(72.221375%, 52.149963%, 78.540039%)" offset="0.542969"/><stop stop-opacity="1" stop-color="rgb(72.067261%, 51.93634%, 78.425598%)" offset="0.546875"/><stop stop-opacity="1" stop-color="rgb(71.911621%, 51.721191%, 78.309631%)" offset="0.550781"/><stop stop-opacity="1" stop-color="rgb(71.757507%, 51.507568%, 78.19519%)" offset="0.554687"/><stop stop-opacity="1" stop-color="rgb(71.603394%, 51.292419%, 78.08075%)" offset="0.558594"/><stop stop-opacity="1" stop-color="rgb(71.44928%, 51.077271%, 77.966309%)" offset="0.5625"/><stop stop-opacity="1" stop-color="rgb(71.29364%, 50.862122%, 77.850342%)" offset="0.566406"/><stop stop-opacity="1" stop-color="rgb(71.139526%, 50.648499%, 77.735901%)" offset="0.570312"/><stop stop-opacity="1" stop-color="rgb(70.983887%, 50.43335%, 77.62146%)" offset="0.574219"/><stop stop-opacity="1" stop-color="rgb(70.829773%, 50.219727%, 77.507019%)" offset="0.578125"/><stop stop-opacity="1" stop-color="rgb(70.674133%, 50.004578%, 77.391052%)" offset="0.582031"/><stop stop-opacity="1" stop-color="rgb(70.52002%, 49.790955%, 77.276611%)" offset="0.585937"/><stop stop-opacity="1" stop-color="rgb(70.36438%, 49.575806%, 77.16217%)" offset="0.589844"/><stop stop-opacity="1" stop-color="rgb(70.210266%, 49.362183%, 77.047729%)" offset="0.59375"/><stop stop-opacity="1" stop-color="rgb(70.056152%, 49.147034%, 76.931763%)" offset="0.597656"/><stop stop-opacity="1" stop-color="rgb(69.902039%, 48.933411%, 76.817322%)" offset="0.601562"/><stop stop-opacity="1" stop-color="rgb(69.746399%, 48.718262%, 76.701355%)" offset="0.605469"/><stop stop-opacity="1" stop-color="rgb(69.592285%, 48.504639%, 76.586914%)" offset="0.609375"/><stop stop-opacity="1" stop-color="rgb(69.436646%, 48.28949%, 76.472473%)" offset="0.613281"/><stop stop-opacity="1" stop-color="rgb(69.282532%, 48.075867%, 76.358032%)" offset="0.617187"/><stop stop-opacity="1" stop-color="rgb(69.126892%, 47.860718%, 76.242065%)" offset="0.621094"/><stop stop-opacity="1" stop-color="rgb(68.972778%, 47.647095%, 76.127625%)" offset="0.625"/><stop stop-opacity="1" stop-color="rgb(68.817139%, 47.431946%, 76.013184%)" offset="0.628906"/><stop stop-opacity="1" stop-color="rgb(68.663025%, 47.218323%, 75.898743%)" offset="0.632812"/><stop stop-opacity="1" stop-color="rgb(68.508911%, 47.003174%, 75.782776%)" offset="0.636719"/><stop stop-opacity="1" stop-color="rgb(68.354797%, 46.789551%, 75.668335%)" offset="0.640625"/><stop stop-opacity="1" stop-color="rgb(68.199158%, 46.574402%, 75.553894%)" offset="0.644531"/><stop stop-opacity="1" stop-color="rgb(68.045044%, 46.360779%, 75.439453%)" offset="0.648437"/><stop stop-opacity="1" stop-color="rgb(67.889404%, 46.14563%, 75.323486%)" offset="0.652344"/><stop stop-opacity="1" stop-color="rgb(67.735291%, 45.930481%, 75.209045%)" offset="0.65625"/><stop stop-opacity="1" stop-color="rgb(67.579651%, 45.715332%, 75.093079%)" offset="0.660156"/><stop stop-opacity="1" stop-color="rgb(67.425537%, 45.501709%, 74.978638%)" offset="0.664062"/><stop stop-opacity="1" stop-color="rgb(67.269897%, 45.28656%, 74.864197%)" offset="0.667969"/><stop stop-opacity="1" stop-color="rgb(67.115784%, 45.072937%, 74.749756%)" offset="0.671875"/><stop stop-opacity="1" stop-color="rgb(66.96167%, 44.857788%, 74.633789%)" offset="0.675781"/><stop stop-opacity="1" stop-color="rgb(66.807556%, 44.644165%, 74.519348%)" offset="0.679687"/><stop stop-opacity="1" stop-color="rgb(66.651917%, 44.429016%, 74.404907%)" offset="0.683594"/><stop stop-opacity="1" stop-color="rgb(66.497803%, 44.215393%, 74.290466%)" offset="0.6875"/><stop stop-opacity="1" stop-color="rgb(66.342163%, 44.000244%, 74.1745%)" offset="0.691406"/><stop stop-opacity="1" stop-color="rgb(66.188049%, 43.786621%, 74.060059%)" offset="0.695312"/><stop stop-opacity="1" stop-color="rgb(66.03241%, 43.571472%, 73.944092%)" offset="0.699219"/><stop stop-opacity="1" stop-color="rgb(65.878296%, 43.357849%, 73.829651%)" offset="0.703125"/><stop stop-opacity="1" stop-color="rgb(65.722656%, 43.1427%, 73.71521%)" offset="0.707031"/><stop stop-opacity="1" stop-color="rgb(65.568542%, 42.929077%, 73.600769%)" offset="0.710937"/><stop stop-opacity="1" stop-color="rgb(65.412903%, 42.713928%, 73.484802%)" offset="0.714844"/><stop stop-opacity="1" stop-color="rgb(65.258789%, 42.500305%, 73.370361%)" offset="0.71875"/><stop stop-opacity="1" stop-color="rgb(65.104675%, 42.285156%, 73.25592%)" offset="0.722656"/><stop stop-opacity="1" stop-color="rgb(64.950562%, 42.071533%, 73.141479%)" offset="0.726562"/><stop stop-opacity="1" stop-color="rgb(64.794922%, 41.856384%, 73.025513%)" offset="0.730469"/><stop stop-opacity="1" stop-color="rgb(64.640808%, 41.642761%, 72.911072%)" offset="0.734375"/><stop stop-opacity="1" stop-color="rgb(64.485168%, 41.427612%, 72.796631%)" offset="0.738281"/><stop stop-opacity="1" stop-color="rgb(64.331055%, 41.212463%, 72.68219%)" offset="0.742187"/><stop stop-opacity="1" stop-color="rgb(64.175415%, 40.997314%, 72.566223%)" offset="0.746094"/><stop stop-opacity="1" stop-color="rgb(64.021301%, 40.783691%, 72.451782%)" offset="0.75"/><stop stop-opacity="1" stop-color="rgb(63.865662%, 40.568542%, 72.335815%)" offset="0.753906"/><stop stop-opacity="1" stop-color="rgb(63.711548%, 40.354919%, 72.221375%)" offset="0.757812"/><stop stop-opacity="1" stop-color="rgb(63.557434%, 40.139771%, 72.106934%)" offset="0.761719"/><stop stop-opacity="1" stop-color="rgb(63.40332%, 39.926147%, 71.992493%)" offset="0.765625"/><stop stop-opacity="1" stop-color="rgb(63.247681%, 39.710999%, 71.876526%)" offset="0.769531"/><stop stop-opacity="1" stop-color="rgb(63.093567%, 39.497375%, 71.762085%)" offset="0.773438"/><stop stop-opacity="1" stop-color="rgb(62.937927%, 39.282227%, 71.647644%)" offset="0.777344"/><stop stop-opacity="1" stop-color="rgb(62.783813%, 39.068604%, 71.533203%)" offset="0.78125"/><stop stop-opacity="1" stop-color="rgb(62.628174%, 38.853455%, 71.417236%)" offset="0.785156"/><stop stop-opacity="1" stop-color="rgb(62.47406%, 38.639832%, 71.302795%)" offset="0.789062"/><stop stop-opacity="1" stop-color="rgb(62.31842%, 38.424683%, 71.186829%)" offset="0.792969"/><stop stop-opacity="1" stop-color="rgb(62.164307%, 38.21106%, 71.072388%)" offset="0.796875"/><stop stop-opacity="1" stop-color="rgb(62.010193%, 37.995911%, 70.957947%)" offset="0.800781"/><stop stop-opacity="1" stop-color="rgb(61.856079%, 37.782288%, 70.843506%)" offset="0.804688"/><stop stop-opacity="1" stop-color="rgb(61.700439%, 37.567139%, 70.727539%)" offset="0.808594"/><stop stop-opacity="1" stop-color="rgb(61.546326%, 37.353516%, 70.613098%)" offset="0.8125"/><stop stop-opacity="1" stop-color="rgb(61.390686%, 37.138367%, 70.498657%)" offset="0.816406"/><stop stop-opacity="1" stop-color="rgb(61.236572%, 36.924744%, 70.384216%)" offset="0.820312"/><stop stop-opacity="1" stop-color="rgb(61.080933%, 36.709595%, 70.26825%)" offset="0.824219"/><stop stop-opacity="1" stop-color="rgb(60.926819%, 36.494446%, 70.153809%)" offset="0.828125"/><stop stop-opacity="1" stop-color="rgb(60.771179%, 36.279297%, 70.039368%)" offset="0.832031"/><stop stop-opacity="1" stop-color="rgb(60.617065%, 36.065674%, 69.924927%)" offset="0.835938"/><stop stop-opacity="1" stop-color="rgb(60.462952%, 35.850525%, 69.80896%)" offset="0.839844"/><stop stop-opacity="1" stop-color="rgb(60.308838%, 35.636902%, 69.694519%)" offset="0.84375"/><stop stop-opacity="1" stop-color="rgb(60.153198%, 35.421753%, 69.578552%)" offset="0.847656"/><stop stop-opacity="1" stop-color="rgb(59.999084%, 35.20813%, 69.464111%)" offset="0.851562"/><stop stop-opacity="1" stop-color="rgb(59.843445%, 34.992981%, 69.34967%)" offset="0.855469"/><stop stop-opacity="1" stop-color="rgb(59.689331%, 34.779358%, 69.235229%)" offset="0.859375"/><stop stop-opacity="1" stop-color="rgb(59.533691%, 34.564209%, 69.119263%)" offset="0.863281"/><stop stop-opacity="1" stop-color="rgb(59.379578%, 34.350586%, 69.004822%)" offset="0.867188"/><stop stop-opacity="1" stop-color="rgb(59.223938%, 34.135437%, 68.890381%)" offset="0.871094"/><stop stop-opacity="1" stop-color="rgb(59.069824%, 33.921814%, 68.77594%)" offset="0.875"/><stop stop-opacity="1" stop-color="rgb(58.91571%, 33.706665%, 68.659973%)" offset="0.878906"/><stop stop-opacity="1" stop-color="rgb(58.761597%, 33.493042%, 68.545532%)" offset="0.882812"/><stop stop-opacity="1" stop-color="rgb(58.605957%, 33.277893%, 68.431091%)" offset="0.886719"/><stop stop-opacity="1" stop-color="rgb(58.451843%, 33.06427%, 68.31665%)" offset="0.890625"/><stop stop-opacity="1" stop-color="rgb(58.296204%, 32.849121%, 68.200684%)" offset="0.894531"/><stop stop-opacity="1" stop-color="rgb(58.14209%, 32.635498%, 68.086243%)" offset="0.898438"/><stop stop-opacity="1" stop-color="rgb(57.98645%, 32.420349%, 67.970276%)" offset="0.902344"/><stop stop-opacity="1" stop-color="rgb(57.832336%, 32.206726%, 67.855835%)" offset="0.90625"/><stop stop-opacity="1" stop-color="rgb(57.676697%, 31.991577%, 67.741394%)" offset="0.910156"/><stop stop-opacity="1" stop-color="rgb(57.522583%, 31.777954%, 67.626953%)" offset="0.914062"/><stop stop-opacity="1" stop-color="rgb(57.368469%, 31.562805%, 67.510986%)" offset="0.917969"/><stop stop-opacity="1" stop-color="rgb(57.214355%, 31.347656%, 67.396545%)" offset="0.921875"/><stop stop-opacity="1" stop-color="rgb(57.058716%, 31.132507%, 67.282104%)" offset="0.925781"/><stop stop-opacity="1" stop-color="rgb(56.904602%, 30.918884%, 67.167664%)" offset="0.929688"/><stop stop-opacity="1" stop-color="rgb(56.748962%, 30.703735%, 67.051697%)" offset="0.933594"/><stop stop-opacity="1" stop-color="rgb(56.594849%, 30.490112%, 66.937256%)" offset="0.9375"/><stop stop-opacity="1" stop-color="rgb(56.439209%, 30.274963%, 66.821289%)" offset="0.941406"/><stop stop-opacity="1" stop-color="rgb(56.285095%, 30.06134%, 66.706848%)" offset="0.945312"/><stop stop-opacity="1" stop-color="rgb(56.129456%, 29.846191%, 66.592407%)" offset="0.949219"/><stop stop-opacity="1" stop-color="rgb(55.975342%, 29.632568%, 66.477966%)" offset="0.953125"/><stop stop-opacity="1" stop-color="rgb(55.821228%, 29.417419%, 66.362%)" offset="0.957031"/><stop stop-opacity="1" stop-color="rgb(55.667114%, 29.203796%, 66.247559%)" offset="0.960938"/><stop stop-opacity="1" stop-color="rgb(55.511475%, 28.988647%, 66.133118%)" offset="0.964844"/><stop stop-opacity="1" stop-color="rgb(55.357361%, 28.775024%, 66.018677%)" offset="0.96875"/><stop stop-opacity="1" stop-color="rgb(55.201721%, 28.559875%, 65.90271%)" offset="0.972656"/><stop stop-opacity="1" stop-color="rgb(55.047607%, 28.346252%, 65.788269%)" offset="0.976562"/><stop stop-opacity="1" stop-color="rgb(54.891968%, 28.131104%, 65.673828%)" offset="0.980469"/><stop stop-opacity="1" stop-color="rgb(54.737854%, 27.91748%, 65.559387%)" offset="0.984375"/><stop stop-opacity="1" stop-color="rgb(54.582214%, 27.702332%, 65.44342%)" offset="0.988281"/><stop stop-opacity="1" stop-color="rgb(54.428101%, 27.488708%, 65.328979%)" offset="0.992188"/><stop stop-opacity="1" stop-color="rgb(54.273987%, 27.27356%, 65.213013%)" offset="0.996094"/><stop stop-opacity="1" stop-color="rgb(54.119873%, 27.059937%, 65.098572%)" offset="1"/></linearGradient></defs><rect x="-37.5" width="450" fill="#ffffff" y="-37.499999" height="449.999989" fill-opacity="1"/><rect x="-37.5" fill="url(#d28a08428c)" width="450" y="-37.499999" height="449.999989"/><g fill="#ffffff" fill-opacity="1"><g transform="translate(293.736318, 78.749995)"><g><path d="M 1.46875 -2.515625 L 3.28125 -2.515625 L 3.28125 0 L 1.46875 0 Z M 1.46875 -2.515625 "/></g></g></g><g fill="#ffffff" fill-opacity="1"><g transform="translate(297.873033, 78.749995)"><g><path d="M 6.859375 -12.625 L 3.125 -10.15625 L 2.359375 -11.4375 L 6.96875 -14.515625 L 8.5625 -14.515625 L 8.5625 0 L 6.859375 0 Z M 6.859375 -12.625 "/></g></g></g><g fill="#ffffff" fill-opacity="1"><g transform="translate(58.376955, 78.749995)"><g><path d="M 0.875 0 Z M 21.171875 0 L 18.65625 0 C 18.613281 1.875 18.132812 3.25 17.21875 4.125 C 16.3125 5.007812 15.066406 5.453125 13.484375 5.453125 L 7.34375 5.453125 C 6.332031 5.453125 5.328125 5.257812 4.328125 4.875 C 3.335938 4.5 2.515625 3.914062 1.859375 3.125 C 1.203125 2.332031 0.875 1.363281 0.875 0.21875 C 0.875 -0.289062 0.9375 -0.972656 1.0625 -1.828125 C 1.1875 -2.679688 1.320312 -3.46875 1.46875 -4.1875 L 4.21875 -3.734375 C 4.113281 -3.117188 4.019531 -2.457031 3.9375 -1.75 C 3.863281 -1.039062 3.828125 -0.53125 3.828125 -0.21875 C 3.828125 0.332031 3.96875 0.835938 4.25 1.296875 C 4.539062 1.753906 4.941406 2.113281 5.453125 2.375 C 5.960938 2.632812 6.554688 2.765625 7.234375 2.765625 L 13.3125 2.765625 C 14.113281 2.765625 14.695312 2.5625 15.0625 2.15625 C 15.4375 1.75 15.628906 1.03125 15.640625 0 L 15.578125 0 C 14.898438 0 14.296875 -0.0664062 13.765625 -0.203125 C 13.242188 -0.347656 12.703125 -0.617188 12.140625 -1.015625 L 13.421875 -3.296875 C 13.796875 -3.003906 14.128906 -2.828125 14.421875 -2.765625 C 14.722656 -2.710938 15.179688 -2.6875 15.796875 -2.6875 L 21.171875 -2.6875 Z M 7.171875 7.046875 L 9.4375 7.046875 L 9.4375 9.796875 L 7.171875 9.796875 Z M 10.515625 7.046875 L 12.78125 7.046875 L 12.78125 9.796875 L 10.515625 9.796875 Z M 10.515625 7.046875 "/></g></g></g><g fill="#ffffff" fill-opacity="1"><g transform="translate(79.098587, 78.749995)"><g><path d="M 0 0 Z M 7.28125 -11.21875 C 8.65625 -11.21875 9.65625 -10.925781 10.28125 -10.34375 C 10.90625 -9.769531 11.222656 -8.851562 11.234375 -7.59375 L 11.234375 0 L 0 0 L 0 -2.6875 L 8.296875 -2.6875 L 8.296875 -6.8125 C 8.296875 -7.445312 8.160156 -7.921875 7.890625 -8.234375 C 7.617188 -8.554688 7.148438 -8.71875 6.484375 -8.71875 C 5.140625 -8.664062 3.96875 -8.617188 2.96875 -8.578125 L 1.84375 -8.53125 L 1.765625 -10.5 C 2.523438 -10.695312 3.445312 -10.863281 4.53125 -11 C 5.613281 -11.144531 6.53125 -11.21875 7.28125 -11.21875 Z M 5.296875 1.75 L 8 1.75 L 8 4.609375 L 5.296875 4.609375 Z M 5.296875 1.75 "/></g></g></g><g fill="#ffffff" fill-opacity="1"><g transform="translate(91.658351, 78.749995)"><g><path d="M 2.484375 5.453125 C 2.296875 5.453125 1.757812 5.425781 0.875 5.375 L 0.875 2.734375 L 1.625 2.765625 C 2.15625 2.765625 2.550781 2.554688 2.8125 2.140625 C 3.082031 1.722656 3.21875 1.132812 3.21875 0.375 L 3.21875 -11 L 6.15625 -11 L 6.15625 -0.125 C 6.15625 1.632812 5.847656 3.003906 5.234375 3.984375 C 4.628906 4.960938 3.710938 5.453125 2.484375 5.453125 Z M 2.484375 5.453125 "/></g></g></g><g fill="#ffffff" fill-opacity="1"><g transform="translate(99.137019, 78.749995)"><g><path d="M 6.859375 -2.6875 L 6.859375 0 L 1.765625 0 L 1.765625 -15.40625 L 4.703125 -15.40625 L 4.703125 -2.6875 Z M 6.859375 -2.6875 "/></g></g></g><g fill="#ffffff" fill-opacity="1"><g transform="translate(106.000235, 78.749995)"><g><path d="M 0 0 Z M 7.28125 -11.21875 C 8.65625 -11.21875 9.65625 -10.925781 10.28125 -10.34375 C 10.90625 -9.769531 11.222656 -8.851562 11.234375 -7.59375 L 11.234375 0 L 0 0 L 0 -2.6875 L 8.296875 -2.6875 L 8.296875 -6.8125 C 8.296875 -7.445312 8.160156 -7.921875 7.890625 -8.234375 C 7.617188 -8.554688 7.148438 -8.71875 6.484375 -8.71875 C 5.140625 -8.664062 3.96875 -8.617188 2.96875 -8.578125 L 1.84375 -8.53125 L 1.765625 -10.5 C 2.523438 -10.695312 3.445312 -10.863281 4.53125 -11 C 5.613281 -11.144531 6.53125 -11.21875 7.28125 -11.21875 Z M 5.296875 -15.90625 L 8 -15.90625 L 8 -13.046875 L 5.296875 -13.046875 Z M 5.296875 -15.90625 "/></g></g></g><g fill="#ffffff" fill-opacity="1"><g transform="translate(118.559999, 78.749995)"><g/></g></g><g fill="#ffffff" fill-opacity="1"><g transform="translate(123.399133, 78.749995)"><g><path d="M 5.9375 -11.4375 C 6.789062 -11.4375 7.691406 -11.378906 8.640625 -11.265625 C 9.597656 -11.160156 10.398438 -11.035156 11.046875 -10.890625 L 11.046875 -1.9375 C 11.046875 -0.726562 10.953125 0.394531 10.765625 1.4375 C 10.585938 2.488281 10.15625 3.421875 9.46875 4.234375 C 8.789062 5.046875 7.769531 5.453125 6.40625 5.453125 C 5.613281 5.453125 4.335938 5.3125 2.578125 5.03125 L 2.578125 2.375 C 4.335938 2.632812 5.523438 2.765625 6.140625 2.765625 C 6.609375 2.765625 6.972656 2.679688 7.234375 2.515625 C 7.503906 2.359375 7.703125 2.082031 7.828125 1.6875 C 7.953125 1.289062 8.015625 0.726562 8.015625 0 L 5.453125 0 C 2.421875 0 0.90625 -1.710938 0.90625 -5.140625 C 0.90625 -6.890625 1.097656 -8.21875 1.484375 -9.125 C 1.867188 -10.039062 2.414062 -10.65625 3.125 -10.96875 C 3.84375 -11.28125 4.78125 -11.4375 5.9375 -11.4375 Z M 3.84375 -5.328125 C 3.84375 -4.578125 4.003906 -3.945312 4.328125 -3.4375 C 4.648438 -2.9375 5.296875 -2.6875 6.265625 -2.6875 L 8.09375 -2.6875 L 8.09375 -8.640625 C 7.539062 -8.710938 7.003906 -8.75 6.484375 -8.75 C 5.867188 -8.75 5.378906 -8.664062 5.015625 -8.5 C 4.648438 -8.332031 4.363281 -8.003906 4.15625 -7.515625 C 3.945312 -7.023438 3.84375 -6.296875 3.84375 -5.328125 Z M 3.84375 -5.328125 "/></g></g></g><g fill="#ffffff" fill-opacity="1"><g transform="translate(135.54097, 78.749995)"><g/></g></g><g fill="#ffffff" fill-opacity="1"><g transform="translate(140.380104, 78.749995)"><g><path d="M 0.875 0 Z M 21.171875 0 L 18.65625 0 C 18.613281 1.875 18.132812 3.25 17.21875 4.125 C 16.3125 5.007812 15.066406 5.453125 13.484375 5.453125 L 7.34375 5.453125 C 6.332031 5.453125 5.328125 5.257812 4.328125 4.875 C 3.335938 4.5 2.515625 3.914062 1.859375 3.125 C 1.203125 2.332031 0.875 1.363281 0.875 0.21875 C 0.875 -0.289062 0.9375 -0.972656 1.0625 -1.828125 C 1.1875 -2.679688 1.320312 -3.46875 1.46875 -4.1875 L 4.21875 -3.734375 C 4.113281 -3.117188 4.019531 -2.457031 3.9375 -1.75 C 3.863281 -1.039062 3.828125 -0.53125 3.828125 -0.21875 C 3.828125 0.332031 3.96875 0.835938 4.25 1.296875 C 4.539062 1.753906 4.941406 2.113281 5.453125 2.375 C 5.960938 2.632812 6.554688 2.765625 7.234375 2.765625 L 13.3125 2.765625 C 14.113281 2.765625 14.695312 2.5625 15.0625 2.15625 C 15.4375 1.75 15.628906 1.03125 15.640625 0 L 15.578125 0 C 14.898438 0 14.296875 -0.0664062 13.765625 -0.203125 C 13.242188 -0.347656 12.703125 -0.617188 12.140625 -1.015625 L 13.421875 -3.296875 C 13.796875 -3.003906 14.128906 -2.828125 14.421875 -2.765625 C 14.722656 -2.710938 15.179688 -2.6875 15.796875 -2.6875 L 21.171875 -2.6875 Z M 7.171875 7.046875 L 9.4375 7.046875 L 9.4375 9.796875 L 7.171875 9.796875 Z M 10.515625 7.046875 L 12.78125 7.046875 L 12.78125 9.796875 L 10.515625 9.796875 Z M 10.515625 7.046875 "/></g></g></g><g fill="#ffffff" fill-opacity="1"><g transform="translate(161.101736, 78.749995)"><g><path d="M 7.96875 -2.6875 L 7.96875 0 L 0 0 L 0 -2.6875 L 2.703125 -2.6875 L 2.703125 -15.40625 L 5.65625 -15.40625 L 5.65625 -2.6875 Z M 7.96875 -2.6875 "/></g></g></g><g fill="#ffffff" fill-opacity="1"><g transform="translate(169.064833, 78.749995)"><g><path d="M 0 0 Z M 7.28125 -11.21875 C 8.65625 -11.21875 9.65625 -10.925781 10.28125 -10.34375 C 10.90625 -9.769531 11.222656 -8.851562 11.234375 -7.59375 L 11.234375 0 L 0 0 L 0 -2.6875 L 8.296875 -2.6875 L 8.296875 -6.8125 C 8.296875 -7.445312 8.160156 -7.921875 7.890625 -8.234375 C 7.617188 -8.554688 7.148438 -8.71875 6.484375 -8.71875 C 5.140625 -8.664062 3.96875 -8.617188 2.96875 -8.578125 L 1.84375 -8.53125 L 1.765625 -10.5 C 2.523438 -10.695312 3.445312 -10.863281 4.53125 -11 C 5.613281 -11.144531 6.53125 -11.21875 7.28125 -11.21875 Z M 5.296875 -15.90625 L 8 -15.90625 L 8 -13.046875 L 5.296875 -13.046875 Z M 5.296875 -15.90625 "/></g></g></g><g fill="#ffffff" fill-opacity="1"><g transform="translate(181.624597, 78.749995)"><g><path d="M 1.765625 -15.40625 L 4.703125 -15.40625 L 4.703125 0 L 1.765625 0 Z M 1.765625 -15.40625 "/></g></g></g><g fill="#ffffff" fill-opacity="1"><g transform="translate(188.311402, 78.749995)"><g><path d="M 5 -11.5 C 6.164062 -11.5 7.191406 -11.207031 8.078125 -10.625 C 8.972656 -10.050781 9.664062 -9.1875 10.15625 -8.03125 C 10.644531 -6.875 10.890625 -5.453125 10.890625 -3.765625 L 10.890625 0 L 0.875 0 L 0.875 -2.6875 L 7.9375 -2.6875 L 7.9375 -3.46875 C 7.9375 -5.382812 7.578125 -6.75 6.859375 -7.5625 C 6.140625 -8.375 5.285156 -8.78125 4.296875 -8.78125 L 2.0625 -8.78125 L 1.84375 -11.09375 C 2.300781 -11.1875 2.816406 -11.273438 3.390625 -11.359375 C 3.972656 -11.453125 4.507812 -11.5 5 -11.5 Z M 5 -11.5 "/></g></g></g><g fill="#ffffff" fill-opacity="1"><g transform="translate(199.859348, 78.749995)"><g/></g></g><g fill="#ffffff" fill-opacity="1"><g transform="translate(204.698482, 78.749995)"><g><path d="M 0.875 0 Z M 6.1875 -0.4375 C 5.445312 -0.4375 4.867188 -0.242188 4.453125 0.140625 C 4.035156 0.523438 3.828125 1.09375 3.828125 1.84375 C 3.828125 2.59375 4.050781 3.191406 4.5 3.640625 C 4.945312 4.085938 5.625 4.3125 6.53125 4.3125 C 6.925781 4.3125 7.507812 4.273438 8.28125 4.203125 C 9.0625 4.128906 9.859375 4.023438 10.671875 3.890625 L 11 6.140625 C 10.28125 6.347656 9.4375 6.535156 8.46875 6.703125 C 7.5 6.867188 6.65625 6.953125 5.9375 6.953125 C 4.320312 6.953125 3.070312 6.476562 2.1875 5.53125 C 1.3125 4.582031 0.875 3.289062 0.875 1.65625 C 0.875 0.144531 1.265625 -1.007812 2.046875 -1.8125 C 2.835938 -2.613281 4.003906 -3.015625 5.546875 -3.015625 C 6.128906 -3.015625 6.707031 -2.96875 7.28125 -2.875 C 7.863281 -2.78125 8.363281 -2.664062 8.78125 -2.53125 L 8.78125 -6.8125 C 8.78125 -7.445312 8.644531 -7.921875 8.375 -8.234375 C 8.101562 -8.554688 7.632812 -8.71875 6.96875 -8.71875 C 5.625 -8.664062 4.453125 -8.617188 3.453125 -8.578125 L 2.328125 -8.53125 L 2.25 -10.5 C 3.007812 -10.695312 3.929688 -10.863281 5.015625 -11 C 6.097656 -11.144531 7.015625 -11.21875 7.765625 -11.21875 C 9.140625 -11.21875 10.140625 -10.925781 10.765625 -10.34375 C 11.390625 -9.769531 11.707031 -8.851562 11.71875 -7.59375 L 11.71875 0 L 8.78125 0 C 8.394531 -0.113281 7.957031 -0.210938 7.46875 -0.296875 C 6.988281 -0.390625 6.5625 -0.4375 6.1875 -0.4375 Z M 6.0625 0.671875 L 8.328125 0.671875 L 8.328125 3.3125 L 6.0625 3.3125 Z M 6.0625 0.671875 "/></g></g></g><g fill="#ffffff" fill-opacity="1"><g transform="translate(217.742159, 78.749995)"><g><path d="M 2.484375 5.453125 C 2.296875 5.453125 1.757812 5.425781 0.875 5.375 L 0.875 2.734375 L 1.625 2.765625 C 2.15625 2.765625 2.550781 2.554688 2.8125 2.140625 C 3.082031 1.722656 3.21875 1.132812 3.21875 0.375 L 3.21875 -11 L 6.15625 -11 L 6.15625 -0.125 C 6.15625 1.632812 5.847656 3.003906 5.234375 3.984375 C 4.628906 4.960938 3.710938 5.453125 2.484375 5.453125 Z M 2.484375 5.453125 "/></g></g></g><g fill="#ffffff" fill-opacity="1"><g transform="translate(225.220827, 78.749995)"><g><path d="M 5 -11.5 C 6.164062 -11.5 7.191406 -11.207031 8.078125 -10.625 C 8.972656 -10.050781 9.664062 -9.1875 10.15625 -8.03125 C 10.644531 -6.875 10.890625 -5.453125 10.890625 -3.765625 L 10.890625 0 L 0.875 0 L 0.875 -2.6875 L 7.9375 -2.6875 L 7.9375 -3.46875 C 7.9375 -5.382812 7.578125 -6.75 6.859375 -7.5625 C 6.140625 -8.375 5.285156 -8.78125 4.296875 -8.78125 L 2.0625 -8.78125 L 1.84375 -11.09375 C 2.300781 -11.1875 2.816406 -11.273438 3.390625 -11.359375 C 3.972656 -11.453125 4.507812 -11.5 5 -11.5 Z M 5 -11.5 "/></g></g></g><g fill="#ffffff" fill-opacity="1"><g transform="translate(236.768773, 78.749995)"><g/></g></g><g fill="#ffffff" fill-opacity="1"><g transform="translate(241.607907, 78.749995)"><g><path d="M 13.171875 -2.6875 L 13.171875 0 L 0.875 0 L 0.875 -2.6875 L 7.9375 -2.6875 L 7.9375 -3.46875 C 7.9375 -5.382812 7.578125 -6.75 6.859375 -7.5625 C 6.140625 -8.375 5.285156 -8.78125 4.296875 -8.78125 L 2.0625 -8.78125 L 1.84375 -11.09375 C 2.300781 -11.1875 2.816406 -11.273438 3.390625 -11.359375 C 3.972656 -11.453125 4.507812 -11.5 5 -11.5 C 6.164062 -11.5 7.191406 -11.207031 8.078125 -10.625 C 8.972656 -10.050781 9.664062 -9.1875 10.15625 -8.03125 C 10.644531 -6.875 10.890625 -5.453125 10.890625 -3.765625 L 10.890625 -2.6875 Z M 13.171875 -2.6875 "/></g></g></g><g fill="#ffffff" fill-opacity="1"><g transform="translate(254.784405, 78.749995)"><g><path d="M 0 0 Z M 6.21875 -11 L 6.21875 0 L 0 0 L 0 -2.6875 L 3.28125 -2.6875 L 3.28125 -11 Z M 1.96875 1.765625 L 4.234375 1.765625 L 4.234375 4.515625 L 1.96875 4.515625 Z M 5.3125 1.765625 L 7.578125 1.765625 L 7.578125 4.515625 L 5.3125 4.515625 Z M 5.3125 1.765625 "/></g></g></g><g fill="#ffffff" fill-opacity="1"><g transform="translate(262.549015, 78.749995)"><g><path d="M 2.484375 5.453125 C 2.296875 5.453125 1.757812 5.425781 0.875 5.375 L 0.875 2.734375 L 1.625 2.765625 C 2.15625 2.765625 2.550781 2.554688 2.8125 2.140625 C 3.082031 1.722656 3.21875 1.132812 3.21875 0.375 L 3.21875 -11 L 6.15625 -11 L 6.15625 -0.125 C 6.15625 1.632812 5.847656 3.003906 5.234375 3.984375 C 4.628906 4.960938 3.710938 5.453125 2.484375 5.453125 Z M 2.484375 5.453125 "/></g></g></g><g fill="#ffffff" fill-opacity="1"><g transform="translate(270.027683, 78.749995)"><g><path d="M 13.75 0 L 10.984375 0 C 10.660156 3.632812 9.132812 5.453125 6.40625 5.453125 C 5.613281 5.453125 4.335938 5.3125 2.578125 5.03125 L 2.578125 2.375 C 4.335938 2.632812 5.523438 2.765625 6.140625 2.765625 C 6.609375 2.765625 6.972656 2.679688 7.234375 2.515625 C 7.503906 2.359375 7.703125 2.082031 7.828125 1.6875 C 7.953125 1.289062 8.015625 0.726562 8.015625 0 L 5.453125 0 C 2.421875 0 0.90625 -1.710938 0.90625 -5.140625 C 0.90625 -6.890625 1.097656 -8.21875 1.484375 -9.125 C 1.867188 -10.039062 2.414062 -10.65625 3.125 -10.96875 C 3.84375 -11.28125 4.78125 -11.4375 5.9375 -11.4375 C 6.789062 -11.4375 7.691406 -11.378906 8.640625 -11.265625 C 9.597656 -11.160156 10.398438 -11.035156 11.046875 -10.890625 L 11.046875 -2.6875 L 13.75 -2.6875 Z M 3.84375 -5.328125 C 3.84375 -4.578125 4.003906 -3.945312 4.328125 -3.4375 C 4.648438 -2.9375 5.296875 -2.6875 6.265625 -2.6875 L 8.09375 -2.6875 L 8.09375 -8.640625 C 7.539062 -8.710938 7.003906 -8.75 6.484375 -8.75 C 5.867188 -8.75 5.378906 -8.664062 5.015625 -8.5 C 4.648438 -8.332031 4.363281 -8.003906 4.15625 -7.515625 C 3.945312 -7.023438 3.84375 -6.296875 3.84375 -5.328125 Z M 3.84375 -5.328125 "/></g></g></g><g fill="#ffffff" fill-opacity="1"><g transform="translate(283.77611, 78.749995)"><g><path d="M 0 0 Z M 6.21875 -11 L 6.21875 0 L 0 0 L 0 -2.6875 L 3.28125 -2.6875 L 3.28125 -11 Z M 1.96875 -15.796875 L 4.234375 -15.796875 L 4.234375 -13.046875 L 1.96875 -13.046875 Z M 5.3125 -15.796875 L 7.578125 -15.796875 L 7.578125 -13.046875 L 5.3125 -13.046875 Z M 5.3125 -15.796875 "/></g></g></g><g fill="#ffffff" fill-opacity="1"><g transform="translate(293.736318, 125.249992)"><g><path d="M 1.46875 -2.515625 L 3.28125 -2.515625 L 3.28125 0 L 1.46875 0 Z M 1.46875 -2.515625 "/></g></g></g><g fill="#ffffff" fill-opacity="1"><g transform="translate(297.873033, 125.249992)"><g><path d="M 1.515625 -1.4375 L 5.765625 -5.890625 C 6.441406 -6.597656 6.960938 -7.164062 7.328125 -7.59375 C 7.703125 -8.03125 8.019531 -8.507812 8.28125 -9.03125 C 8.550781 -9.5625 8.6875 -10.109375 8.6875 -10.671875 C 8.6875 -11.597656 8.4375 -12.253906 7.9375 -12.640625 C 7.4375 -13.023438 6.628906 -13.21875 5.515625 -13.21875 C 4.597656 -13.21875 3.535156 -13.09375 2.328125 -12.84375 L 1.765625 -12.734375 L 1.625 -14.140625 C 3.007812 -14.535156 4.445312 -14.734375 5.9375 -14.734375 C 7.445312 -14.734375 8.570312 -14.414062 9.3125 -13.78125 C 10.050781 -13.15625 10.421875 -12.175781 10.421875 -10.84375 C 10.421875 -9.84375 10.203125 -8.960938 9.765625 -8.203125 C 9.328125 -7.441406 8.535156 -6.507812 7.390625 -5.40625 L 3.515625 -1.46875 L 10.796875 -1.46875 L 10.796875 0 L 1.515625 0 Z M 1.515625 -1.4375 "/></g></g></g><g fill="#ffffff" fill-opacity="1"><g transform="translate(61.693361, 125.249992)"><g/></g></g><g fill="#ffffff" fill-opacity="1"><g transform="translate(66.533204, 125.249992)"><g><path d="M 0.875 0 Z M 21.171875 0 L 18.65625 0 C 18.613281 1.875 18.132812 3.25 17.21875 4.125 C 16.3125 5.007812 15.066406 5.453125 13.484375 5.453125 L 7.34375 5.453125 C 6.332031 5.453125 5.328125 5.257812 4.328125 4.875 C 3.335938 4.5 2.515625 3.914062 1.859375 3.125 C 1.203125 2.332031 0.875 1.363281 0.875 0.21875 C 0.875 -0.289062 0.9375 -0.972656 1.0625 -1.828125 C 1.1875 -2.679688 1.320312 -3.46875 1.46875 -4.1875 L 4.21875 -3.734375 C 4.113281 -3.117188 4.019531 -2.457031 3.9375 -1.75 C 3.863281 -1.039062 3.828125 -0.53125 3.828125 -0.21875 C 3.828125 0.332031 3.96875 0.835938 4.25 1.296875 C 4.539062 1.753906 4.941406 2.113281 5.453125 2.375 C 5.960938 2.632812 6.554688 2.765625 7.234375 2.765625 L 13.3125 2.765625 C 14.113281 2.765625 14.695312 2.5625 15.0625 2.15625 C 15.4375 1.75 15.628906 1.03125 15.640625 0 L 15.578125 0 C 14.898438 0 14.296875 -0.0664062 13.765625 -0.203125 C 13.242188 -0.347656 12.703125 -0.617188 12.140625 -1.015625 L 13.421875 -3.296875 C 13.796875 -3.003906 14.128906 -2.828125 14.421875 -2.765625 C 14.722656 -2.710938 15.179688 -2.6875 15.796875 -2.6875 L 21.171875 -2.6875 Z M 7.171875 7.046875 L 9.4375 7.046875 L 9.4375 9.796875 L 7.171875 9.796875 Z M 10.515625 7.046875 L 12.78125 7.046875 L 12.78125 9.796875 L 10.515625 9.796875 Z M 10.515625 7.046875 "/></g></g></g><g fill="#ffffff" fill-opacity="1"><g transform="translate(87.254837, 125.249992)"><g><path d="M 14.65625 -2.6875 L 14.65625 0 L 11.765625 0 C 11.035156 0 10.289062 -0.0820312 9.53125 -0.25 C 8.78125 -0.414062 8.070312 -0.648438 7.40625 -0.953125 C 6.75 -0.648438 6.050781 -0.414062 5.3125 -0.25 C 4.570312 -0.0820312 3.863281 0 3.1875 0 L 0 0 L 0 -2.6875 L 3.125 -2.6875 C 3.582031 -2.6875 4.082031 -2.742188 4.625 -2.859375 C 3.582031 -3.796875 2.789062 -4.625 2.25 -5.34375 C 1.71875 -6.0625 1.453125 -6.816406 1.453125 -7.609375 L 1.390625 -9.546875 C 2.078125 -9.984375 2.976562 -10.378906 4.09375 -10.734375 C 5.207031 -11.085938 6.304688 -11.265625 7.390625 -11.265625 C 8.460938 -11.265625 9.566406 -11.085938 10.703125 -10.734375 C 11.835938 -10.378906 12.765625 -9.984375 13.484375 -9.546875 L 13.390625 -7.609375 C 13.390625 -6.804688 13.125 -6.050781 12.59375 -5.34375 C 12.0625 -4.644531 11.273438 -3.816406 10.234375 -2.859375 C 10.773438 -2.742188 11.28125 -2.6875 11.75 -2.6875 Z M 7.4375 -4 C 8.519531 -4.675781 9.3125 -5.363281 9.8125 -6.0625 C 10.320312 -6.769531 10.578125 -7.425781 10.578125 -8.03125 C 9.492188 -8.394531 8.4375 -8.578125 7.40625 -8.578125 C 6.394531 -8.578125 5.363281 -8.394531 4.3125 -8.03125 C 4.3125 -7.414062 4.570312 -6.738281 5.09375 -6 C 5.625 -5.269531 6.40625 -4.601562 7.4375 -4 Z M 7.4375 -4 "/></g></g></g><g fill="#ffffff" fill-opacity="1"><g transform="translate(101.905162, 125.249992)"><g><path d="M 0 0 Z M 9.53125 -2.6875 L 9.53125 0 L 0 0 L 0 -2.6875 L 3.28125 -2.6875 L 3.28125 -11 L 6.21875 -11 L 6.21875 -2.6875 Z M 1.90625 1.765625 L 4.171875 1.765625 L 4.171875 4.515625 L 1.90625 4.515625 Z M 5.25 1.765625 L 7.515625 1.765625 L 7.515625 4.515625 L 5.25 4.515625 Z M 5.25 1.765625 "/></g></g></g><g fill="#ffffff" fill-opacity="1"><g transform="translate(111.430079, 125.249992)"><g><path d="M 0 0 Z M 9.53125 -2.6875 L 9.53125 0 L 0 0 L 0 -2.6875 L 3.28125 -2.6875 L 3.28125 -11 L 6.21875 -11 L 6.21875 -2.6875 Z M 3.359375 1.75 L 6.0625 1.75 L 6.0625 4.609375 L 3.359375 4.609375 Z M 3.359375 1.75 "/></g></g></g><g fill="#ffffff" fill-opacity="1"><g transform="translate(120.954996, 125.249992)"><g><path d="M 10.953125 -11.21875 C 12.804688 -11.21875 14.113281 -10.648438 14.875 -9.515625 C 15.644531 -8.378906 16.03125 -7.046875 16.03125 -5.515625 L 16.03125 0 L 0 0 L 0 -2.6875 L 1.84375 -2.6875 L 1.84375 -15.40625 L 4.796875 -15.40625 L 4.796875 -7.484375 C 5.453125 -8.304688 6.046875 -8.972656 6.578125 -9.484375 C 7.117188 -9.992188 7.75 -10.410156 8.46875 -10.734375 C 9.1875 -11.054688 10.015625 -11.21875 10.953125 -11.21875 Z M 10.296875 -8.53125 C 9.328125 -8.53125 8.429688 -8.132812 7.609375 -7.34375 C 6.785156 -6.550781 6.109375 -5.675781 5.578125 -4.71875 C 5.054688 -3.757812 4.796875 -3.144531 4.796875 -2.875 L 4.796875 -2.6875 L 13.09375 -2.6875 L 13.09375 -4.953125 C 13.09375 -5.960938 12.84375 -6.8125 12.34375 -7.5 C 11.851562 -8.1875 11.171875 -8.53125 10.296875 -8.53125 Z M 10.296875 -8.53125 "/></g></g></g><g fill="#ffffff" fill-opacity="1"><g transform="translate(138.309903, 125.249992)"><g/></g></g><g fill="#ffffff" fill-opacity="1"><g transform="translate(143.149037, 125.249992)"><g><path d="M 7.640625 -11.203125 C 9.148438 -11.203125 10.3125 -10.976562 11.125 -10.53125 C 11.9375 -10.09375 12.484375 -9.46875 12.765625 -8.65625 C 13.054688 -7.851562 13.203125 -6.800781 13.203125 -5.5 L 13.203125 0 L 6.078125 0 C 5.429688 0 4.859375 0.207031 4.359375 0.625 C 3.859375 1.039062 3.609375 1.84375 3.609375 3.03125 C 3.609375 3.945312 3.804688 5.3125 4.203125 7.125 L 1.6875 7.21875 C 1.488281 6.320312 1.300781 5.347656 1.125 4.296875 C 0.957031 3.253906 0.875 2.378906 0.875 1.671875 C 0.875 0.640625 1.0625 -0.191406 1.4375 -0.828125 C 1.8125 -1.460938 2.289062 -1.9375 2.875 -2.25 C 2.613281 -3.363281 2.484375 -4.441406 2.484375 -5.484375 C 2.484375 -6.285156 2.5625 -7.144531 2.71875 -8.0625 C 2.882812 -8.988281 3.070312 -9.789062 3.28125 -10.46875 C 3.675781 -10.664062 4.257812 -10.835938 5.03125 -10.984375 C 5.8125 -11.128906 6.679688 -11.203125 7.640625 -11.203125 Z M 10.25 -2.6875 L 10.25 -5.5625 C 10.25 -6.59375 10.046875 -7.347656 9.640625 -7.828125 C 9.242188 -8.316406 8.472656 -8.5625 7.328125 -8.5625 C 6.765625 -8.5625 6.207031 -8.5 5.65625 -8.375 C 5.445312 -7.28125 5.34375 -6.316406 5.34375 -5.484375 C 5.34375 -4.984375 5.375 -4.472656 5.4375 -3.953125 C 5.507812 -3.429688 5.582031 -3.007812 5.65625 -2.6875 Z M 10.25 -2.6875 "/></g></g></g><g fill="#ffffff" fill-opacity="1"><g transform="translate(157.446483, 125.249992)"><g><path d="M 6.859375 -2.6875 L 6.859375 0 L 1.765625 0 L 1.765625 -15.40625 L 4.703125 -15.40625 L 4.703125 -2.6875 Z M 6.859375 -2.6875 "/></g></g></g><g fill="#ffffff" fill-opacity="1"><g transform="translate(164.309699, 125.249992)"><g><path d="M 0 0 Z M 7.28125 -11.21875 C 8.65625 -11.21875 9.65625 -10.925781 10.28125 -10.34375 C 10.90625 -9.769531 11.222656 -8.851562 11.234375 -7.59375 L 11.234375 0 L 0 0 L 0 -2.6875 L 8.296875 -2.6875 L 8.296875 -6.8125 C 8.296875 -7.445312 8.160156 -7.921875 7.890625 -8.234375 C 7.617188 -8.554688 7.148438 -8.71875 6.484375 -8.71875 C 5.140625 -8.664062 3.96875 -8.617188 2.96875 -8.578125 L 1.84375 -8.53125 L 1.765625 -10.5 C 2.523438 -10.695312 3.445312 -10.863281 4.53125 -11 C 5.613281 -11.144531 6.53125 -11.21875 7.28125 -11.21875 Z M 5.296875 -15.90625 L 8 -15.90625 L 8 -13.046875 L 5.296875 -13.046875 Z M 5.296875 -15.90625 "/></g></g></g><g fill="#ffffff" fill-opacity="1"><g transform="translate(176.869463, 125.249992)"><g><path d="M 2.484375 5.453125 C 2.296875 5.453125 1.757812 5.425781 0.875 5.375 L 0.875 2.734375 L 1.625 2.765625 C 2.15625 2.765625 2.550781 2.554688 2.8125 2.140625 C 3.082031 1.722656 3.21875 1.132812 3.21875 0.375 L 3.21875 -11 L 6.15625 -11 L 6.15625 -0.125 C 6.15625 1.632812 5.847656 3.003906 5.234375 3.984375 C 4.628906 4.960938 3.710938 5.453125 2.484375 5.453125 Z M 2.484375 5.453125 "/></g></g></g><g fill="#ffffff" fill-opacity="1"><g transform="translate(184.348131, 125.249992)"><g/></g></g><g fill="#ffffff" fill-opacity="1"><g transform="translate(189.187265, 125.249992)"><g><path d="M 6.1875 -0.4375 C 5.445312 -0.4375 4.867188 -0.242188 4.453125 0.140625 C 4.035156 0.523438 3.828125 1.09375 3.828125 1.84375 C 3.828125 2.59375 4.050781 3.191406 4.5 3.640625 C 4.945312 4.085938 5.625 4.3125 6.53125 4.3125 C 6.925781 4.3125 7.507812 4.273438 8.28125 4.203125 C 9.0625 4.128906 9.859375 4.023438 10.671875 3.890625 L 11 6.140625 C 10.28125 6.347656 9.4375 6.535156 8.46875 6.703125 C 7.5 6.867188 6.65625 6.953125 5.9375 6.953125 C 4.320312 6.953125 3.070312 6.476562 2.1875 5.53125 C 1.3125 4.582031 0.875 3.289062 0.875 1.65625 C 0.875 0.144531 1.265625 -1.007812 2.046875 -1.8125 C 2.835938 -2.613281 4.003906 -3.015625 5.546875 -3.015625 C 6.128906 -3.015625 6.707031 -2.96875 7.28125 -2.875 C 7.863281 -2.78125 8.363281 -2.664062 8.78125 -2.53125 L 8.78125 -6.8125 C 8.78125 -7.445312 8.644531 -7.921875 8.375 -8.234375 C 8.101562 -8.554688 7.632812 -8.71875 6.96875 -8.71875 C 5.625 -8.664062 4.453125 -8.617188 3.453125 -8.578125 L 2.328125 -8.53125 L 2.25 -10.5 C 3.007812 -10.695312 3.929688 -10.863281 5.015625 -11 C 6.097656 -11.144531 7.015625 -11.21875 7.765625 -11.21875 C 9.140625 -11.21875 10.140625 -10.925781 10.765625 -10.34375 C 11.390625 -9.769531 11.707031 -8.851562 11.71875 -7.59375 L 11.71875 0 L 8.78125 0 C 8.394531 -0.113281 7.957031 -0.210938 7.46875 -0.296875 C 6.988281 -0.390625 6.5625 -0.4375 6.1875 -0.4375 Z M 6.1875 -0.4375 "/></g></g></g><g fill="#ffffff" fill-opacity="1"><g transform="translate(202.230942, 125.249992)"><g><path d="M 1.765625 -15.40625 L 4.703125 -15.40625 L 4.703125 0 L 1.765625 0 Z M 1.765625 -15.40625 "/></g></g></g><g fill="#ffffff" fill-opacity="1"><g transform="translate(208.917747, 125.249992)"><g><path d="M 13.75 0 L 10.984375 0 C 10.660156 3.632812 9.132812 5.453125 6.40625 5.453125 C 5.613281 5.453125 4.335938 5.3125 2.578125 5.03125 L 2.578125 2.375 C 4.335938 2.632812 5.523438 2.765625 6.140625 2.765625 C 6.609375 2.765625 6.972656 2.679688 7.234375 2.515625 C 7.503906 2.359375 7.703125 2.082031 7.828125 1.6875 C 7.953125 1.289062 8.015625 0.726562 8.015625 0 L 5.453125 0 C 2.421875 0 0.90625 -1.710938 0.90625 -5.140625 C 0.90625 -6.890625 1.097656 -8.21875 1.484375 -9.125 C 1.867188 -10.039062 2.414062 -10.65625 3.125 -10.96875 C 3.84375 -11.28125 4.78125 -11.4375 5.9375 -11.4375 C 6.789062 -11.4375 7.691406 -11.378906 8.640625 -11.265625 C 9.597656 -11.160156 10.398438 -11.035156 11.046875 -10.890625 L 11.046875 -2.6875 L 13.75 -2.6875 Z M 3.84375 -5.328125 C 3.84375 -4.578125 4.003906 -3.945312 4.328125 -3.4375 C 4.648438 -2.9375 5.296875 -2.6875 6.265625 -2.6875 L 8.09375 -2.6875 L 8.09375 -8.640625 C 7.539062 -8.710938 7.003906 -8.75 6.484375 -8.75 C 5.867188 -8.75 5.378906 -8.664062 5.015625 -8.5 C 4.648438 -8.332031 4.363281 -8.003906 4.15625 -7.515625 C 3.945312 -7.023438 3.84375 -6.296875 3.84375 -5.328125 Z M 3.84375 -5.328125 "/></g></g></g><g fill="#ffffff" fill-opacity="1"><g transform="translate(222.666175, 125.249992)"><g><path d="M 5.65625 -15.40625 L 5.65625 0 L 0 0 L 0 -2.6875 L 2.703125 -2.6875 L 2.703125 -15.40625 Z M 5.65625 -15.40625 "/></g></g></g><g fill="#ffffff" fill-opacity="1"><g transform="translate(230.078856, 125.249992)"><g><path d="M 1.765625 -15.40625 L 4.703125 -15.40625 L 4.703125 0 L 1.765625 0 Z M 1.765625 -15.40625 "/></g></g></g><g fill="#ffffff" fill-opacity="1"><g transform="translate(236.765661, 125.249992)"><g/></g></g><g fill="#ffffff" fill-opacity="1"><g transform="translate(241.604795, 125.249992)"><g><path d="M 13.171875 -2.6875 L 13.171875 0 L 0.875 0 L 0.875 -2.6875 L 7.9375 -2.6875 L 7.9375 -3.46875 C 7.9375 -5.382812 7.578125 -6.75 6.859375 -7.5625 C 6.140625 -8.375 5.285156 -8.78125 4.296875 -8.78125 L 2.0625 -8.78125 L 1.84375 -11.09375 C 2.300781 -11.1875 2.816406 -11.273438 3.390625 -11.359375 C 3.972656 -11.453125 4.507812 -11.5 5 -11.5 C 6.164062 -11.5 7.191406 -11.207031 8.078125 -10.625 C 8.972656 -10.050781 9.664062 -9.1875 10.15625 -8.03125 C 10.644531 -6.875 10.890625 -5.453125 10.890625 -3.765625 L 10.890625 -2.6875 Z M 13.171875 -2.6875 "/></g></g></g><g fill="#ffffff" fill-opacity="1"><g transform="translate(254.781293, 125.249992)"><g><path d="M 0 0 Z M 6.21875 -11 L 6.21875 0 L 0 0 L 0 -2.6875 L 3.28125 -2.6875 L 3.28125 -11 Z M 1.96875 1.765625 L 4.234375 1.765625 L 4.234375 4.515625 L 1.96875 4.515625 Z M 5.3125 1.765625 L 7.578125 1.765625 L 7.578125 4.515625 L 5.3125 4.515625 Z M 5.3125 1.765625 "/></g></g></g><g fill="#ffffff" fill-opacity="1"><g transform="translate(262.545903, 125.249992)"><g><path d="M 2.484375 5.453125 C 2.296875 5.453125 1.757812 5.425781 0.875 5.375 L 0.875 2.734375 L 1.625 2.765625 C 2.15625 2.765625 2.550781 2.554688 2.8125 2.140625 C 3.082031 1.722656 3.21875 1.132812 3.21875 0.375 L 3.21875 -11 L 6.15625 -11 L 6.15625 -0.125 C 6.15625 1.632812 5.847656 3.003906 5.234375 3.984375 C 4.628906 4.960938 3.710938 5.453125 2.484375 5.453125 Z M 2.484375 5.453125 "/></g></g></g><g fill="#ffffff" fill-opacity="1"><g transform="translate(270.024571, 125.249992)"><g><path d="M 13.75 0 L 10.984375 0 C 10.660156 3.632812 9.132812 5.453125 6.40625 5.453125 C 5.613281 5.453125 4.335938 5.3125 2.578125 5.03125 L 2.578125 2.375 C 4.335938 2.632812 5.523438 2.765625 6.140625 2.765625 C 6.609375 2.765625 6.972656 2.679688 7.234375 2.515625 C 7.503906 2.359375 7.703125 2.082031 7.828125 1.6875 C 7.953125 1.289062 8.015625 0.726562 8.015625 0 L 5.453125 0 C 2.421875 0 0.90625 -1.710938 0.90625 -5.140625 C 0.90625 -6.890625 1.097656 -8.21875 1.484375 -9.125 C 1.867188 -10.039062 2.414062 -10.65625 3.125 -10.96875 C 3.84375 -11.28125 4.78125 -11.4375 5.9375 -11.4375 C 6.789062 -11.4375 7.691406 -11.378906 8.640625 -11.265625 C 9.597656 -11.160156 10.398438 -11.035156 11.046875 -10.890625 L 11.046875 -2.6875 L 13.75 -2.6875 Z M 3.84375 -5.328125 C 3.84375 -4.578125 4.003906 -3.945312 4.328125 -3.4375 C 4.648438 -2.9375 5.296875 -2.6875 6.265625 -2.6875 L 8.09375 -2.6875 L 8.09375 -8.640625 C 7.539062 -8.710938 7.003906 -8.75 6.484375 -8.75 C 5.867188 -8.75 5.378906 -8.664062 5.015625 -8.5 C 4.648438 -8.332031 4.363281 -8.003906 4.15625 -7.515625 C 3.945312 -7.023438 3.84375 -6.296875 3.84375 -5.328125 Z M 3.84375 -5.328125 "/></g></g></g><g fill="#ffffff" fill-opacity="1"><g transform="translate(283.772998, 125.249992)"><g><path d="M 0 0 Z M 6.21875 -11 L 6.21875 0 L 0 0 L 0 -2.6875 L 3.28125 -2.6875 L 3.28125 -11 Z M 1.96875 -15.796875 L 4.234375 -15.796875 L 4.234375 -13.046875 L 1.96875 -13.046875 Z M 5.3125 -15.796875 L 7.578125 -15.796875 L 7.578125 -13.046875 L 5.3125 -13.046875 Z M 5.3125 -15.796875 "/></g></g></g><g fill="#ffffff" fill-opacity="1"><g transform="translate(293.736318, 171.749989)"><g><path d="M 1.46875 -2.515625 L 3.28125 -2.515625 L 3.28125 0 L 1.46875 0 Z M 1.46875 -2.515625 "/></g></g></g><g fill="#ffffff" fill-opacity="1"><g transform="translate(297.873033, 171.749989)"><g><path d="M 6.140625 0.21875 C 4.878906 0.21875 3.515625 0.0703125 2.046875 -0.21875 L 1.359375 -0.375 L 1.515625 -1.765625 C 3.191406 -1.410156 4.515625 -1.234375 5.484375 -1.234375 C 6.609375 -1.234375 7.492188 -1.445312 8.140625 -1.875 C 8.785156 -2.300781 9.109375 -3.039062 9.109375 -4.09375 C 9.109375 -5.851562 8.109375 -6.757812 6.109375 -6.8125 L 3.1875 -6.8125 L 3.1875 -8.265625 L 6.109375 -8.265625 C 6.535156 -8.265625 6.953125 -8.378906 7.359375 -8.609375 C 7.765625 -8.835938 8.097656 -9.15625 8.359375 -9.5625 C 8.617188 -9.976562 8.75 -10.441406 8.75 -10.953125 C 8.75 -11.765625 8.519531 -12.347656 8.0625 -12.703125 C 7.601562 -13.066406 6.84375 -13.25 5.78125 -13.25 C 4.613281 -13.25 3.457031 -13.132812 2.3125 -12.90625 L 1.734375 -12.796875 L 1.578125 -14.140625 C 2.941406 -14.554688 4.425781 -14.765625 6.03125 -14.765625 C 7.59375 -14.765625 8.726562 -14.460938 9.4375 -13.859375 C 10.144531 -13.253906 10.5 -12.296875 10.5 -10.984375 C 10.5 -10.265625 10.304688 -9.601562 9.921875 -9 C 9.535156 -8.394531 9.007812 -7.953125 8.34375 -7.671875 C 8.9375 -7.453125 9.410156 -7.210938 9.765625 -6.953125 C 10.117188 -6.691406 10.382812 -6.335938 10.5625 -5.890625 C 10.75 -5.441406 10.84375 -4.863281 10.84375 -4.15625 C 10.84375 -2.65625 10.460938 -1.550781 9.703125 -0.84375 C 8.941406 -0.132812 7.753906 0.21875 6.140625 0.21875 Z M 6.140625 0.21875 "/></g></g></g><g fill="#ffffff" fill-opacity="1"><g transform="translate(95.24414, 171.749989)"><g><path d="M 3.390625 2.75 C 2.703125 1.707031 2.101562 0.269531 1.59375 -1.5625 C 1.09375 -3.394531 0.84375 -5.082031 0.84375 -6.625 C 0.84375 -8.28125 1.078125 -9.988281 1.546875 -11.75 C 2.023438 -13.507812 2.640625 -15.09375 3.390625 -16.5 L 6.1875 -16.5 C 5.6875 -15.226562 5.210938 -13.570312 4.765625 -11.53125 C 4.316406 -9.5 4.09375 -7.863281 4.09375 -6.625 C 4.09375 -4.070312 4.789062 -0.945312 6.1875 2.75 Z M 3.390625 2.75 "/></g></g></g><g fill="#ffffff" fill-opacity="1"><g transform="translate(102.018927, 171.749989)"><g><path d="M 1.1875 0 Z M 16.984375 -11 L 16.984375 0 L 7.484375 0 C 6.203125 0 5.117188 -0.09375 4.234375 -0.28125 C 3.347656 -0.476562 2.617188 -0.882812 2.046875 -1.5 C 1.472656 -2.113281 1.1875 -3.03125 1.1875 -4.25 C 1.1875 -4.875 1.253906 -5.59375 1.390625 -6.40625 C 1.535156 -7.226562 1.695312 -7.972656 1.875 -8.640625 L 4.25 -8.515625 L 4.09375 -7.125 C 3.945312 -6.050781 3.875 -5.316406 3.875 -4.921875 C 3.875 -3.429688 4.957031 -2.6875 7.125 -2.6875 L 14.03125 -2.6875 L 14.03125 -11 Z M 6.4375 -13.75 L 8.703125 -13.75 L 8.703125 -11 L 6.4375 -11 Z M 9.78125 -13.75 L 12.046875 -13.75 L 12.046875 -11 L 9.78125 -11 Z M 9.78125 -13.75 "/></g></g></g><g fill="#ffffff" fill-opacity="1"><g transform="translate(120.539621, 171.749989)"><g><path d="M 6.859375 -2.6875 L 6.859375 0 L 1.765625 0 L 1.765625 -15.40625 L 4.703125 -15.40625 L 4.703125 -2.6875 Z M 6.859375 -2.6875 "/></g></g></g><g fill="#ffffff" fill-opacity="1"><g transform="translate(127.402837, 171.749989)"><g><path d="M 0 0 Z M 9.53125 -2.6875 L 9.53125 0 L 0 0 L 0 -2.6875 L 3.28125 -2.6875 L 3.28125 -11 L 6.21875 -11 L 6.21875 -2.6875 Z M 1.90625 1.765625 L 4.171875 1.765625 L 4.171875 4.515625 L 1.90625 4.515625 Z M 5.25 1.765625 L 7.515625 1.765625 L 7.515625 4.515625 L 5.25 4.515625 Z M 5.25 1.765625 "/></g></g></g><g fill="#ffffff" fill-opacity="1"><g transform="translate(136.927754, 171.749989)"><g><path d="M 0 0 Z M 12.015625 -11.21875 C 13.859375 -11.21875 15.164062 -10.648438 15.9375 -9.515625 C 16.707031 -8.378906 17.09375 -7.046875 17.09375 -5.515625 L 17.09375 0 L 0 0 L 0 -2.6875 L 2.90625 -2.6875 L 2.90625 -11 L 5.859375 -11 L 5.859375 -7.484375 C 6.515625 -8.304688 7.109375 -8.972656 7.640625 -9.484375 C 8.179688 -9.992188 8.8125 -10.410156 9.53125 -10.734375 C 10.25 -11.054688 11.078125 -11.21875 12.015625 -11.21875 Z M 11.328125 -8.53125 C 10.285156 -8.53125 9.269531 -8.039062 8.28125 -7.0625 C 7.289062 -6.09375 6.484375 -4.972656 5.859375 -3.703125 L 5.859375 -2.6875 L 14.140625 -2.6875 L 14.140625 -4.953125 C 14.140625 -5.953125 13.894531 -6.796875 13.40625 -7.484375 C 12.914062 -8.179688 12.222656 -8.53125 11.328125 -8.53125 Z M 9.546875 -15.90625 L 12.25 -15.90625 L 12.25 -13.046875 L 9.546875 -13.046875 Z M 9.546875 -15.90625 "/></g></g></g><g fill="#ffffff" fill-opacity="1"><g transform="translate(155.33847, 171.749989)"><g><path d="M 2.484375 5.453125 C 2.296875 5.453125 1.757812 5.425781 0.875 5.375 L 0.875 2.734375 L 1.625 2.765625 C 2.15625 2.765625 2.550781 2.554688 2.8125 2.140625 C 3.082031 1.722656 3.21875 1.132812 3.21875 0.375 L 3.21875 -11 L 6.15625 -11 L 6.15625 -0.125 C 6.15625 1.632812 5.847656 3.003906 5.234375 3.984375 C 4.628906 4.960938 3.710938 5.453125 2.484375 5.453125 Z M 2.484375 5.453125 "/></g></g></g><g fill="#ffffff" fill-opacity="1"><g transform="translate(162.817138, 171.749989)"><g><path d="M 1.765625 -15.40625 L 4.703125 -15.40625 L 4.703125 0 L 1.765625 0 Z M 1.765625 -15.40625 "/></g></g></g><g fill="#ffffff" fill-opacity="1"><g transform="translate(169.503943, 171.749989)"><g><path d="M 0.59375 2.75 C 1.988281 -0.945312 2.6875 -4.070312 2.6875 -6.625 C 2.6875 -7.882812 2.460938 -9.53125 2.015625 -11.5625 C 1.566406 -13.601562 1.09375 -15.25 0.59375 -16.5 L 3.390625 -16.5 C 4.160156 -14.957031 4.773438 -13.320312 5.234375 -11.59375 C 5.703125 -9.863281 5.9375 -8.207031 5.9375 -6.625 C 5.9375 -5.050781 5.679688 -3.351562 5.171875 -1.53125 C 4.660156 0.289062 4.066406 1.71875 3.390625 2.75 Z M 0.59375 2.75 "/></g></g></g><g fill="#ffffff" fill-opacity="1"><g transform="translate(176.278731, 171.749989)"><g/></g></g><g fill="#ffffff" fill-opacity="1"><g transform="translate(181.117864, 171.749989)"><g><path d="M 14.125 -2.6875 L 14.125 0 L 11.234375 0 C 10.503906 0 9.769531 -0.078125 9.03125 -0.234375 C 8.289062 -0.398438 7.582031 -0.640625 6.90625 -0.953125 L 5.5625 -0.390625 C 4.519531 -0.191406 4 0.550781 4 1.84375 C 4 3.488281 4.84375 4.3125 6.53125 4.3125 C 6.925781 4.3125 7.507812 4.273438 8.28125 4.203125 C 9.0625 4.128906 9.859375 4.023438 10.671875 3.890625 L 11 6.140625 L 10.203125 6.34375 C 9.515625 6.507812 8.773438 6.648438 7.984375 6.765625 C 7.203125 6.890625 6.519531 6.953125 5.9375 6.953125 C 4.320312 6.953125 3.070312 6.476562 2.1875 5.53125 C 1.3125 4.582031 0.875 3.289062 0.875 1.65625 C 0.875 0.40625 1.140625 -0.597656 1.671875 -1.359375 C 2.210938 -2.128906 3.007812 -2.628906 4.0625 -2.859375 C 3.070312 -3.765625 2.300781 -4.582031 1.75 -5.3125 C 1.195312 -6.050781 0.914062 -6.816406 0.90625 -7.609375 L 0.859375 -9.546875 C 1.546875 -9.984375 2.445312 -10.378906 3.5625 -10.734375 C 4.675781 -11.085938 5.773438 -11.265625 6.859375 -11.265625 C 7.929688 -11.265625 9.035156 -11.085938 10.171875 -10.734375 C 11.304688 -10.378906 12.234375 -9.984375 12.953125 -9.546875 L 12.875 -7.609375 C 12.875 -6.804688 12.601562 -6.050781 12.0625 -5.34375 C 11.53125 -4.644531 10.742188 -3.816406 9.703125 -2.859375 C 10.242188 -2.742188 10.75 -2.6875 11.21875 -2.6875 Z M 6.90625 -4 C 7.988281 -4.675781 8.78125 -5.363281 9.28125 -6.0625 C 9.789062 -6.769531 10.046875 -7.425781 10.046875 -8.03125 C 8.960938 -8.394531 7.910156 -8.578125 6.890625 -8.578125 C 5.878906 -8.578125 4.84375 -8.394531 3.78125 -8.03125 C 3.78125 -7.414062 4.046875 -6.738281 4.578125 -6 C 5.109375 -5.269531 5.882812 -4.601562 6.90625 -4 Z M 6.90625 -4 "/></g></g></g><g fill="#ffffff" fill-opacity="1"><g transform="translate(195.24025, 171.749989)"><g><path d="M 0 0 Z M 9.53125 -2.6875 L 9.53125 0 L 0 0 L 0 -2.6875 L 3.28125 -2.6875 L 3.28125 -11 L 6.21875 -11 L 6.21875 -2.6875 Z M 1.90625 1.765625 L 4.171875 1.765625 L 4.171875 4.515625 L 1.90625 4.515625 Z M 5.25 1.765625 L 7.515625 1.765625 L 7.515625 4.515625 L 5.25 4.515625 Z M 5.25 1.765625 "/></g></g></g><g fill="#ffffff" fill-opacity="1"><g transform="translate(204.765167, 171.749989)"><g><path d="M 0 0 Z M 6.21875 -11 L 6.21875 0 L 0 0 L 0 -2.6875 L 3.28125 -2.6875 L 3.28125 -11 Z M 3.421875 1.75 L 6.125 1.75 L 6.125 4.609375 L 3.421875 4.609375 Z M 3.421875 1.75 "/></g></g></g><g fill="#ffffff" fill-opacity="1"><g transform="translate(212.529788, 171.749989)"><g><path d="M 1.765625 -15.40625 L 4.703125 -15.40625 L 4.703125 0 L 1.765625 0 Z M 1.765625 -15.40625 "/></g></g></g><g fill="#ffffff" fill-opacity="1"><g transform="translate(219.216594, 171.749989)"><g><path d="M 9.796875 0 L 6.15625 0 C 6.144531 1.726562 5.832031 3.066406 5.21875 4.015625 C 4.613281 4.972656 3.703125 5.453125 2.484375 5.453125 C 2.296875 5.453125 1.757812 5.425781 0.875 5.375 L 0.875 2.734375 L 1.625 2.765625 C 2.15625 2.765625 2.550781 2.554688 2.8125 2.140625 C 3.082031 1.722656 3.21875 1.132812 3.21875 0.375 L 3.21875 -11 L 6.15625 -11 L 6.15625 -2.6875 L 9.796875 -2.6875 Z M 9.796875 0 "/></g></g></g><g fill="#ffffff" fill-opacity="1"><g transform="translate(229.00548, 171.749989)"><g><path d="M 0 0 Z M 6.21875 -11 L 6.21875 0 L 0 0 L 0 -2.6875 L 3.28125 -2.6875 L 3.28125 -11 Z M 1.96875 -15.796875 L 4.234375 -15.796875 L 4.234375 -13.046875 L 1.96875 -13.046875 Z M 5.3125 -15.796875 L 7.578125 -15.796875 L 7.578125 -13.046875 L 5.3125 -13.046875 Z M 5.3125 -15.796875 "/></g></g></g><g fill="#ffffff" fill-opacity="1"><g transform="translate(236.770101, 171.749989)"><g/></g></g><g fill="#ffffff" fill-opacity="1"><g transform="translate(241.609235, 171.749989)"><g><path d="M 13.171875 -2.6875 L 13.171875 0 L 0.875 0 L 0.875 -2.6875 L 7.9375 -2.6875 L 7.9375 -3.46875 C 7.9375 -5.382812 7.578125 -6.75 6.859375 -7.5625 C 6.140625 -8.375 5.285156 -8.78125 4.296875 -8.78125 L 2.0625 -8.78125 L 1.84375 -11.09375 C 2.300781 -11.1875 2.816406 -11.273438 3.390625 -11.359375 C 3.972656 -11.453125 4.507812 -11.5 5 -11.5 C 6.164062 -11.5 7.191406 -11.207031 8.078125 -10.625 C 8.972656 -10.050781 9.664062 -9.1875 10.15625 -8.03125 C 10.644531 -6.875 10.890625 -5.453125 10.890625 -3.765625 L 10.890625 -2.6875 Z M 13.171875 -2.6875 "/></g></g></g><g fill="#ffffff" fill-opacity="1"><g transform="translate(254.785733, 171.749989)"><g><path d="M 0 0 Z M 6.21875 -11 L 6.21875 0 L 0 0 L 0 -2.6875 L 3.28125 -2.6875 L 3.28125 -11 Z M 1.96875 1.765625 L 4.234375 1.765625 L 4.234375 4.515625 L 1.96875 4.515625 Z M 5.3125 1.765625 L 7.578125 1.765625 L 7.578125 4.515625 L 5.3125 4.515625 Z M 5.3125 1.765625 "/></g></g></g><g fill="#ffffff" fill-opacity="1"><g transform="translate(262.550354, 171.749989)"><g><path d="M 2.484375 5.453125 C 2.296875 5.453125 1.757812 5.425781 0.875 5.375 L 0.875 2.734375 L 1.625 2.765625 C 2.15625 2.765625 2.550781 2.554688 2.8125 2.140625 C 3.082031 1.722656 3.21875 1.132812 3.21875 0.375 L 3.21875 -11 L 6.15625 -11 L 6.15625 -0.125 C 6.15625 1.632812 5.847656 3.003906 5.234375 3.984375 C 4.628906 4.960938 3.710938 5.453125 2.484375 5.453125 Z M 2.484375 5.453125 "/></g></g></g><g fill="#ffffff" fill-opacity="1"><g transform="translate(270.029022, 171.749989)"><g><path d="M 13.75 0 L 10.984375 0 C 10.660156 3.632812 9.132812 5.453125 6.40625 5.453125 C 5.613281 5.453125 4.335938 5.3125 2.578125 5.03125 L 2.578125 2.375 C 4.335938 2.632812 5.523438 2.765625 6.140625 2.765625 C 6.609375 2.765625 6.972656 2.679688 7.234375 2.515625 C 7.503906 2.359375 7.703125 2.082031 7.828125 1.6875 C 7.953125 1.289062 8.015625 0.726562 8.015625 0 L 5.453125 0 C 2.421875 0 0.90625 -1.710938 0.90625 -5.140625 C 0.90625 -6.890625 1.097656 -8.21875 1.484375 -9.125 C 1.867188 -10.039062 2.414062 -10.65625 3.125 -10.96875 C 3.84375 -11.28125 4.78125 -11.4375 5.9375 -11.4375 C 6.789062 -11.4375 7.691406 -11.378906 8.640625 -11.265625 C 9.597656 -11.160156 10.398438 -11.035156 11.046875 -10.890625 L 11.046875 -2.6875 L 13.75 -2.6875 Z M 3.84375 -5.328125 C 3.84375 -4.578125 4.003906 -3.945312 4.328125 -3.4375 C 4.648438 -2.9375 5.296875 -2.6875 6.265625 -2.6875 L 8.09375 -2.6875 L 8.09375 -8.640625 C 7.539062 -8.710938 7.003906 -8.75 6.484375 -8.75 C 5.867188 -8.75 5.378906 -8.664062 5.015625 -8.5 C 4.648438 -8.332031 4.363281 -8.003906 4.15625 -7.515625 C 3.945312 -7.023438 3.84375 -6.296875 3.84375 -5.328125 Z M 3.84375 -5.328125 "/></g></g></g><g fill="#ffffff" fill-opacity="1"><g transform="translate(283.77745, 171.749989)"><g><path d="M 0 0 Z M 6.21875 -11 L 6.21875 0 L 0 0 L 0 -2.6875 L 3.28125 -2.6875 L 3.28125 -11 Z M 1.96875 -15.796875 L 4.234375 -15.796875 L 4.234375 -13.046875 L 1.96875 -13.046875 Z M 5.3125 -15.796875 L 7.578125 -15.796875 L 7.578125 -13.046875 L 5.3125 -13.046875 Z M 5.3125 -15.796875 "/></g></g></g><g fill="#ffffff" fill-opacity="1"><g transform="translate(293.736318, 218.249986)"><g><path d="M 1.46875 -2.515625 L 3.28125 -2.515625 L 3.28125 0 L 1.46875 0 Z M 1.46875 -2.515625 "/></g></g></g><g fill="#ffffff" fill-opacity="1"><g transform="translate(297.873033, 218.249986)"><g><path d="M 7.921875 -2.84375 L 0.875 -2.84375 L 0.875 -4.15625 L 5.015625 -14.515625 L 6.859375 -14.515625 L 2.65625 -4.328125 L 7.921875 -4.328125 L 7.921875 -8.859375 L 9.609375 -8.859375 L 9.609375 -4.328125 L 11.46875 -4.328125 L 11.46875 -2.84375 L 9.609375 -2.84375 L 9.609375 0 L 7.921875 0 Z M 7.921875 -2.84375 "/></g></g></g><g fill="#ffffff" fill-opacity="1"><g transform="translate(83.619141, 218.249986)"><g><path d="M 16.125 0 L 13.546875 0 L 13.546875 0.3125 C 13.546875 1.25 13.289062 2.109375 12.78125 2.890625 C 12.28125 3.671875 11.5625 4.289062 10.625 4.75 C 9.695312 5.21875 8.617188 5.453125 7.390625 5.453125 C 6.140625 5.453125 5.023438 5.21875 4.046875 4.75 C 3.078125 4.289062 2.316406 3.664062 1.765625 2.875 C 1.222656 2.082031 0.953125 1.210938 0.953125 0.265625 C 0.953125 -0.671875 1.210938 -2.773438 1.734375 -6.046875 L 4.515625 -5.890625 C 4.335938 -4.773438 4.175781 -3.613281 4.03125 -2.40625 C 3.882812 -1.207031 3.8125 -0.421875 3.8125 -0.046875 C 3.8125 0.460938 3.957031 0.9375 4.25 1.375 C 4.539062 1.8125 4.953125 2.148438 5.484375 2.390625 C 6.023438 2.640625 6.625 2.765625 7.28125 2.765625 C 7.9375 2.765625 8.519531 2.640625 9.03125 2.390625 C 9.539062 2.148438 9.929688 1.816406 10.203125 1.390625 C 10.472656 0.960938 10.609375 0.5 10.609375 0 L 10.609375 -15.40625 L 13.546875 -15.40625 L 13.546875 -2.6875 L 16.125 -2.6875 Z M 16.125 0 "/></g></g></g><g fill="#ffffff" fill-opacity="1"><g transform="translate(99.743304, 218.249986)"><g><path d="M 16.9375 -11.015625 C 17.101562 -10.078125 17.25 -9.125 17.375 -8.15625 C 17.5 -7.1875 17.5625 -6.503906 17.5625 -6.109375 L 17.5625 0 L 13.03125 0 C 12.539062 0 12.070312 -0.078125 11.625 -0.234375 C 11.175781 -0.398438 10.8125 -0.59375 10.53125 -0.8125 C 9.945312 -0.269531 9.21875 0 8.34375 0 L 0 0 L 0 -2.6875 L 3.359375 -2.6875 L 3.359375 -9.90625 L 6.3125 -9.90625 L 6.3125 -2.6875 L 7.328125 -2.6875 C 7.878906 -2.6875 8.304688 -2.910156 8.609375 -3.359375 C 8.910156 -3.804688 9.0625 -4.378906 9.0625 -5.078125 L 9.0625 -9.90625 L 12.015625 -9.90625 L 12.015625 -5.078125 C 12.015625 -4.328125 11.941406 -3.660156 11.796875 -3.078125 C 11.921875 -2.972656 12.085938 -2.878906 12.296875 -2.796875 C 12.515625 -2.722656 12.734375 -2.6875 12.953125 -2.6875 L 14.609375 -2.6875 L 14.609375 -5.703125 C 14.609375 -6.640625 14.59375 -7.429688 14.5625 -8.078125 C 14.53125 -8.734375 14.460938 -9.675781 14.359375 -10.90625 Z M 16.9375 -11.015625 "/></g></g></g><g fill="#ffffff" fill-opacity="1"><g transform="translate(118.615938, 218.249986)"><g><path d="M 6.859375 -2.6875 L 6.859375 0 L 1.765625 0 L 1.765625 -15.40625 L 4.703125 -15.40625 L 4.703125 -2.6875 Z M 6.859375 -2.6875 "/></g></g></g><g fill="#ffffff" fill-opacity="1"><g transform="translate(125.479154, 218.249986)"><g><path d="M 0 0 Z M 14.65625 -2.6875 L 14.65625 0 L 11.765625 0 C 11.035156 0 10.289062 -0.0820312 9.53125 -0.25 C 8.78125 -0.414062 8.070312 -0.648438 7.40625 -0.953125 C 6.75 -0.648438 6.050781 -0.414062 5.3125 -0.25 C 4.570312 -0.0820312 3.863281 0 3.1875 0 L 0 0 L 0 -2.6875 L 3.125 -2.6875 C 3.582031 -2.6875 4.082031 -2.742188 4.625 -2.859375 C 3.582031 -3.796875 2.789062 -4.625 2.25 -5.34375 C 1.71875 -6.0625 1.453125 -6.816406 1.453125 -7.609375 L 1.390625 -9.546875 C 2.078125 -9.984375 2.976562 -10.378906 4.09375 -10.734375 C 5.207031 -11.085938 6.304688 -11.265625 7.390625 -11.265625 C 8.460938 -11.265625 9.566406 -11.085938 10.703125 -10.734375 C 11.835938 -10.378906 12.765625 -9.984375 13.484375 -9.546875 L 13.390625 -7.609375 C 13.390625 -6.804688 13.125 -6.050781 12.59375 -5.34375 C 12.0625 -4.644531 11.273438 -3.816406 10.234375 -2.859375 C 10.773438 -2.742188 11.28125 -2.6875 11.75 -2.6875 Z M 7.4375 -4 C 8.519531 -4.675781 9.3125 -5.363281 9.8125 -6.0625 C 10.320312 -6.769531 10.578125 -7.425781 10.578125 -8.03125 C 9.492188 -8.394531 8.4375 -8.578125 7.40625 -8.578125 C 6.394531 -8.578125 5.363281 -8.394531 4.3125 -8.03125 C 4.3125 -7.414062 4.570312 -6.738281 5.09375 -6 C 5.625 -5.269531 6.40625 -4.601562 7.4375 -4 Z M 5.953125 -15.90625 L 8.65625 -15.90625 L 8.65625 -13.046875 L 5.953125 -13.046875 Z M 5.953125 -15.90625 "/></g></g></g><g fill="#ffffff" fill-opacity="1"><g transform="translate(140.129479, 218.249986)"><g><path d="M 8.265625 -11.203125 C 9.773438 -11.203125 10.9375 -10.976562 11.75 -10.53125 C 12.570312 -10.09375 13.125 -9.46875 13.40625 -8.65625 C 13.695312 -7.851562 13.84375 -6.800781 13.84375 -5.5 L 13.84375 0 L 0 0 L 0 -2.6875 L 3.4375 -2.6875 C 3.226562 -3.738281 3.125 -4.671875 3.125 -5.484375 C 3.125 -6.285156 3.203125 -7.144531 3.359375 -8.0625 C 3.523438 -8.988281 3.710938 -9.789062 3.921875 -10.46875 C 4.316406 -10.664062 4.898438 -10.835938 5.671875 -10.984375 C 6.453125 -11.128906 7.316406 -11.203125 8.265625 -11.203125 Z M 5.984375 -5.484375 C 5.984375 -4.984375 6.015625 -4.472656 6.078125 -3.953125 C 6.148438 -3.429688 6.222656 -3.007812 6.296875 -2.6875 L 10.890625 -2.6875 L 10.890625 -5.5625 C 10.890625 -6.59375 10.6875 -7.347656 10.28125 -7.828125 C 9.882812 -8.316406 9.113281 -8.5625 7.96875 -8.5625 C 7.40625 -8.5625 6.847656 -8.5 6.296875 -8.375 C 6.085938 -7.28125 5.984375 -6.316406 5.984375 -5.484375 Z M 5.984375 -5.484375 "/></g></g></g><g fill="#ffffff" fill-opacity="1"><g transform="translate(155.064819, 218.249986)"><g/></g></g><g fill="#ffffff" fill-opacity="1"><g transform="translate(159.903953, 218.249986)"><g><path d="M 13.171875 -2.6875 L 13.171875 0 L 0.875 0 L 0.875 -2.6875 L 7.9375 -2.6875 L 7.9375 -3.46875 C 7.9375 -5.382812 7.578125 -6.75 6.859375 -7.5625 C 6.140625 -8.375 5.285156 -8.78125 4.296875 -8.78125 L 2.0625 -8.78125 L 1.84375 -11.09375 C 2.300781 -11.1875 2.816406 -11.273438 3.390625 -11.359375 C 3.972656 -11.453125 4.507812 -11.5 5 -11.5 C 6.164062 -11.5 7.191406 -11.207031 8.078125 -10.625 C 8.972656 -10.050781 9.664062 -9.1875 10.15625 -8.03125 C 10.644531 -6.875 10.890625 -5.453125 10.890625 -3.765625 L 10.890625 -2.6875 Z M 13.171875 -2.6875 "/></g></g></g><g fill="#ffffff" fill-opacity="1"><g transform="translate(173.080451, 218.249986)"><g><path d="M 0 0 Z M 6.21875 -11 L 6.21875 0 L 0 0 L 0 -2.6875 L 3.28125 -2.6875 L 3.28125 -11 Z M 1.96875 1.765625 L 4.234375 1.765625 L 4.234375 4.515625 L 1.96875 4.515625 Z M 5.3125 1.765625 L 7.578125 1.765625 L 7.578125 4.515625 L 5.3125 4.515625 Z M 5.3125 1.765625 "/></g></g></g><g fill="#ffffff" fill-opacity="1"><g transform="translate(180.845072, 218.249986)"><g><path d="M 2.484375 5.453125 C 2.296875 5.453125 1.757812 5.425781 0.875 5.375 L 0.875 2.734375 L 1.625 2.765625 C 2.15625 2.765625 2.550781 2.554688 2.8125 2.140625 C 3.082031 1.722656 3.21875 1.132812 3.21875 0.375 L 3.21875 -11 L 6.15625 -11 L 6.15625 -0.125 C 6.15625 1.632812 5.847656 3.003906 5.234375 3.984375 C 4.628906 4.960938 3.710938 5.453125 2.484375 5.453125 Z M 2.484375 5.453125 "/></g></g></g><g fill="#ffffff" fill-opacity="1"><g transform="translate(188.323739, 218.249986)"><g><path d="M 13.75 0 L 10.984375 0 C 10.660156 3.632812 9.132812 5.453125 6.40625 5.453125 C 5.613281 5.453125 4.335938 5.3125 2.578125 5.03125 L 2.578125 2.375 C 4.335938 2.632812 5.523438 2.765625 6.140625 2.765625 C 6.609375 2.765625 6.972656 2.679688 7.234375 2.515625 C 7.503906 2.359375 7.703125 2.082031 7.828125 1.6875 C 7.953125 1.289062 8.015625 0.726562 8.015625 0 L 5.453125 0 C 2.421875 0 0.90625 -1.710938 0.90625 -5.140625 C 0.90625 -6.890625 1.097656 -8.21875 1.484375 -9.125 C 1.867188 -10.039062 2.414062 -10.65625 3.125 -10.96875 C 3.84375 -11.28125 4.78125 -11.4375 5.9375 -11.4375 C 6.789062 -11.4375 7.691406 -11.378906 8.640625 -11.265625 C 9.597656 -11.160156 10.398438 -11.035156 11.046875 -10.890625 L 11.046875 -2.6875 L 13.75 -2.6875 Z M 3.84375 -5.328125 C 3.84375 -4.578125 4.003906 -3.945312 4.328125 -3.4375 C 4.648438 -2.9375 5.296875 -2.6875 6.265625 -2.6875 L 8.09375 -2.6875 L 8.09375 -8.640625 C 7.539062 -8.710938 7.003906 -8.75 6.484375 -8.75 C 5.867188 -8.75 5.378906 -8.664062 5.015625 -8.5 C 4.648438 -8.332031 4.363281 -8.003906 4.15625 -7.515625 C 3.945312 -7.023438 3.84375 -6.296875 3.84375 -5.328125 Z M 3.84375 -5.328125 "/></g></g></g><g fill="#ffffff" fill-opacity="1"><g transform="translate(202.072167, 218.249986)"><g><path d="M 0 0 Z M 6.21875 -11 L 6.21875 0 L 0 0 L 0 -2.6875 L 3.28125 -2.6875 L 3.28125 -11 Z M 1.96875 -15.796875 L 4.234375 -15.796875 L 4.234375 -13.046875 L 1.96875 -13.046875 Z M 5.3125 -15.796875 L 7.578125 -15.796875 L 7.578125 -13.046875 L 5.3125 -13.046875 Z M 5.3125 -15.796875 "/></g></g></g><g fill="#ffffff" fill-opacity="1"><g transform="translate(209.836788, 218.249986)"><g/></g></g><g fill="#ffffff" fill-opacity="1"><g transform="translate(214.675922, 218.249986)"><g><path d="M 5.9375 -11.4375 C 6.789062 -11.4375 7.691406 -11.378906 8.640625 -11.265625 C 9.597656 -11.160156 10.398438 -11.035156 11.046875 -10.890625 L 11.046875 -1.9375 C 11.046875 -0.726562 10.953125 0.394531 10.765625 1.4375 C 10.585938 2.488281 10.15625 3.421875 9.46875 4.234375 C 8.789062 5.046875 7.769531 5.453125 6.40625 5.453125 C 5.613281 5.453125 4.335938 5.3125 2.578125 5.03125 L 2.578125 2.375 C 4.335938 2.632812 5.523438 2.765625 6.140625 2.765625 C 6.609375 2.765625 6.972656 2.679688 7.234375 2.515625 C 7.503906 2.359375 7.703125 2.082031 7.828125 1.6875 C 7.953125 1.289062 8.015625 0.726562 8.015625 0 L 5.453125 0 C 2.421875 0 0.90625 -1.710938 0.90625 -5.140625 C 0.90625 -6.890625 1.097656 -8.21875 1.484375 -9.125 C 1.867188 -10.039062 2.414062 -10.65625 3.125 -10.96875 C 3.84375 -11.28125 4.78125 -11.4375 5.9375 -11.4375 Z M 3.84375 -5.328125 C 3.84375 -4.578125 4.003906 -3.945312 4.328125 -3.4375 C 4.648438 -2.9375 5.296875 -2.6875 6.265625 -2.6875 L 8.09375 -2.6875 L 8.09375 -8.640625 C 7.539062 -8.710938 7.003906 -8.75 6.484375 -8.75 C 5.867188 -8.75 5.378906 -8.664062 5.015625 -8.5 C 4.648438 -8.332031 4.363281 -8.003906 4.15625 -7.515625 C 3.945312 -7.023438 3.84375 -6.296875 3.84375 -5.328125 Z M 3.84375 -5.328125 "/></g></g></g><g fill="#ffffff" fill-opacity="1"><g transform="translate(226.81776, 218.249986)"><g/></g></g><g fill="#ffffff" fill-opacity="1"><g transform="translate(231.656893, 218.249986)"><g><path d="M 14.125 -2.6875 L 14.125 0 L 11.234375 0 C 10.503906 0 9.769531 -0.078125 9.03125 -0.234375 C 8.289062 -0.398438 7.582031 -0.640625 6.90625 -0.953125 L 5.5625 -0.390625 C 4.519531 -0.191406 4 0.550781 4 1.84375 C 4 3.488281 4.84375 4.3125 6.53125 4.3125 C 6.925781 4.3125 7.507812 4.273438 8.28125 4.203125 C 9.0625 4.128906 9.859375 4.023438 10.671875 3.890625 L 11 6.140625 L 10.203125 6.34375 C 9.515625 6.507812 8.773438 6.648438 7.984375 6.765625 C 7.203125 6.890625 6.519531 6.953125 5.9375 6.953125 C 4.320312 6.953125 3.070312 6.476562 2.1875 5.53125 C 1.3125 4.582031 0.875 3.289062 0.875 1.65625 C 0.875 0.40625 1.140625 -0.597656 1.671875 -1.359375 C 2.210938 -2.128906 3.007812 -2.628906 4.0625 -2.859375 C 3.070312 -3.765625 2.300781 -4.582031 1.75 -5.3125 C 1.195312 -6.050781 0.914062 -6.816406 0.90625 -7.609375 L 0.859375 -9.546875 C 1.546875 -9.984375 2.445312 -10.378906 3.5625 -10.734375 C 4.675781 -11.085938 5.773438 -11.265625 6.859375 -11.265625 C 7.929688 -11.265625 9.035156 -11.085938 10.171875 -10.734375 C 11.304688 -10.378906 12.234375 -9.984375 12.953125 -9.546875 L 12.875 -7.609375 C 12.875 -6.804688 12.601562 -6.050781 12.0625 -5.34375 C 11.53125 -4.644531 10.742188 -3.816406 9.703125 -2.859375 C 10.242188 -2.742188 10.75 -2.6875 11.21875 -2.6875 Z M 6.90625 -4 C 7.988281 -4.675781 8.78125 -5.363281 9.28125 -6.0625 C 9.789062 -6.769531 10.046875 -7.425781 10.046875 -8.03125 C 8.960938 -8.394531 7.910156 -8.578125 6.890625 -8.578125 C 5.878906 -8.578125 4.84375 -8.394531 3.78125 -8.03125 C 3.78125 -7.414062 4.046875 -6.738281 4.578125 -6 C 5.109375 -5.269531 5.882812 -4.601562 6.90625 -4 Z M 6.90625 -4 "/></g></g></g><g fill="#ffffff" fill-opacity="1"><g transform="translate(245.779279, 218.249986)"><g><path d="M 0 0 Z M 9.53125 -2.6875 L 9.53125 0 L 0 0 L 0 -2.6875 L 3.28125 -2.6875 L 3.28125 -11 L 6.21875 -11 L 6.21875 -2.6875 Z M 1.90625 1.765625 L 4.171875 1.765625 L 4.171875 4.515625 L 1.90625 4.515625 Z M 5.25 1.765625 L 7.515625 1.765625 L 7.515625 4.515625 L 5.25 4.515625 Z M 5.25 1.765625 "/></g></g></g><g fill="#ffffff" fill-opacity="1"><g transform="translate(255.304196, 218.249986)"><g><path d="M 0 0 Z M 9.53125 -2.6875 L 9.53125 0 L 0 0 L 0 -2.6875 L 3.28125 -2.6875 L 3.28125 -11 L 6.21875 -11 L 6.21875 -2.6875 Z M 3.359375 -15.90625 L 6.0625 -15.90625 L 6.0625 -13.046875 L 3.359375 -13.046875 Z M 3.359375 -15.90625 "/></g></g></g><g fill="#ffffff" fill-opacity="1"><g transform="translate(264.829113, 218.249986)"><g><path d="M 18.9375 -2.6875 L 18.9375 0 L 0 0 L 0 -2.6875 L 2.90625 -2.6875 L 2.90625 -11 L 5.859375 -11 L 5.859375 -7.484375 C 6.515625 -8.304688 7.109375 -8.972656 7.640625 -9.484375 C 8.179688 -9.992188 8.8125 -10.410156 9.53125 -10.734375 C 10.25 -11.054688 11.078125 -11.21875 12.015625 -11.21875 C 13.859375 -11.21875 15.164062 -10.648438 15.9375 -9.515625 C 16.707031 -8.378906 17.09375 -7.046875 17.09375 -5.515625 L 17.09375 -2.6875 Z M 11.328125 -8.53125 C 10.285156 -8.53125 9.269531 -8.039062 8.28125 -7.0625 C 7.289062 -6.09375 6.484375 -4.972656 5.859375 -3.703125 L 5.859375 -2.6875 L 14.140625 -2.6875 L 14.140625 -4.953125 C 14.140625 -5.953125 13.894531 -6.796875 13.40625 -7.484375 C 12.914062 -8.179688 12.222656 -8.53125 11.328125 -8.53125 Z M 11.328125 -8.53125 "/></g></g></g><g fill="#ffffff" fill-opacity="1"><g transform="translate(283.768947, 218.249986)"><g><path d="M 0 0 Z M 6.21875 -11 L 6.21875 0 L 0 0 L 0 -2.6875 L 3.28125 -2.6875 L 3.28125 -11 Z M 1.96875 -15.796875 L 4.234375 -15.796875 L 4.234375 -13.046875 L 1.96875 -13.046875 Z M 5.3125 -15.796875 L 7.578125 -15.796875 L 7.578125 -13.046875 L 5.3125 -13.046875 Z M 5.3125 -15.796875 "/></g></g></g><g fill="#ffffff" fill-opacity="1"><g transform="translate(293.736318, 264.749983)"><g><path d="M 1.46875 -2.515625 L 3.28125 -2.515625 L 3.28125 0 L 1.46875 0 Z M 1.46875 -2.515625 "/></g></g></g><g fill="#ffffff" fill-opacity="1"><g transform="translate(297.873033, 264.749983)"><g><path d="M 6.203125 0.203125 C 4.941406 0.203125 3.578125 0.0390625 2.109375 -0.28125 L 1.390625 -0.4375 L 1.578125 -1.78125 C 3.234375 -1.457031 4.660156 -1.296875 5.859375 -1.296875 C 6.984375 -1.296875 7.84375 -1.585938 8.4375 -2.171875 C 9.03125 -2.765625 9.328125 -3.601562 9.328125 -4.6875 C 9.328125 -5.726562 9.066406 -6.476562 8.546875 -6.9375 C 8.023438 -7.40625 7.257812 -7.640625 6.25 -7.640625 C 5.757812 -7.640625 5.222656 -7.566406 4.640625 -7.421875 C 4.066406 -7.285156 3.601562 -7.132812 3.25 -6.96875 L 2.796875 -6.75 L 1.625 -6.96875 L 2.03125 -14.515625 L 10.5 -14.515625 L 10.5 -12.984375 L 3.4375 -12.984375 L 3.03125 -8.25 C 4.164062 -8.851562 5.304688 -9.15625 6.453125 -9.15625 C 9.523438 -9.15625 11.0625 -7.722656 11.0625 -4.859375 C 11.0625 -3.234375 10.640625 -1.984375 9.796875 -1.109375 C 8.953125 -0.234375 7.753906 0.203125 6.203125 0.203125 Z M 6.203125 0.203125 "/></g></g></g><g fill="#ffffff" fill-opacity="1"><g transform="translate(31.318363, 264.749983)"><g><path d="M 0.875 0 Z M 14.015625 -2.6875 L 14.015625 0 L 8.78125 0 C 8.394531 -0.113281 7.957031 -0.210938 7.46875 -0.296875 C 6.988281 -0.390625 6.5625 -0.4375 6.1875 -0.4375 C 5.445312 -0.4375 4.867188 -0.242188 4.453125 0.140625 C 4.035156 0.523438 3.828125 1.09375 3.828125 1.84375 C 3.828125 2.59375 4.050781 3.191406 4.5 3.640625 C 4.945312 4.085938 5.625 4.3125 6.53125 4.3125 C 6.925781 4.3125 7.507812 4.273438 8.28125 4.203125 C 9.0625 4.128906 9.859375 4.023438 10.671875 3.890625 L 11 6.140625 C 10.28125 6.347656 9.4375 6.535156 8.46875 6.703125 C 7.5 6.867188 6.65625 6.953125 5.9375 6.953125 C 4.320312 6.953125 3.070312 6.476562 2.1875 5.53125 C 1.3125 4.582031 0.875 3.289062 0.875 1.65625 C 0.875 0.144531 1.265625 -1.007812 2.046875 -1.8125 C 2.835938 -2.613281 4.003906 -3.015625 5.546875 -3.015625 C 6.128906 -3.015625 6.707031 -2.96875 7.28125 -2.875 C 7.863281 -2.78125 8.363281 -2.664062 8.78125 -2.53125 L 8.78125 -6.8125 C 8.78125 -7.445312 8.644531 -7.921875 8.375 -8.234375 C 8.101562 -8.554688 7.632812 -8.71875 6.96875 -8.71875 C 5.625 -8.664062 4.453125 -8.617188 3.453125 -8.578125 L 2.328125 -8.53125 L 2.25 -10.5 C 3.007812 -10.695312 3.929688 -10.863281 5.015625 -11 C 6.097656 -11.144531 7.015625 -11.21875 7.765625 -11.21875 C 9.140625 -11.21875 10.140625 -10.925781 10.765625 -10.34375 C 11.390625 -9.769531 11.707031 -8.851562 11.71875 -7.59375 L 11.71875 -2.6875 Z M 5.578125 -15.90625 L 8.28125 -15.90625 L 8.28125 -13.046875 L 5.578125 -13.046875 Z M 5.578125 -15.90625 "/></g></g></g><g fill="#ffffff" fill-opacity="1"><g transform="translate(45.33076, 264.749983)"><g><path d="M 0 0 Z M 6.21875 -11 L 6.21875 0 L 0 0 L 0 -2.6875 L 3.28125 -2.6875 L 3.28125 -11 Z M 3.421875 1.75 L 6.125 1.75 L 6.125 4.609375 L 3.421875 4.609375 Z M 3.421875 1.75 "/></g></g></g><g fill="#ffffff" fill-opacity="1"><g transform="translate(53.095381, 264.749983)"><g><path d="M 6.859375 -2.6875 L 6.859375 0 L 1.765625 0 L 1.765625 -15.40625 L 4.703125 -15.40625 L 4.703125 -2.6875 Z M 6.859375 -2.6875 "/></g></g></g><g fill="#ffffff" fill-opacity="1"><g transform="translate(59.958597, 264.749983)"><g><path d="M 17.890625 -2.6875 L 17.890625 0 L 0 0 L 0 -2.6875 L 1.84375 -2.6875 L 1.84375 -15.40625 L 4.796875 -15.40625 L 4.796875 -7.484375 C 5.453125 -8.304688 6.046875 -8.972656 6.578125 -9.484375 C 7.117188 -9.992188 7.75 -10.410156 8.46875 -10.734375 C 9.1875 -11.054688 10.015625 -11.21875 10.953125 -11.21875 C 12.804688 -11.21875 14.113281 -10.648438 14.875 -9.515625 C 15.644531 -8.378906 16.03125 -7.046875 16.03125 -5.515625 L 16.03125 -2.6875 Z M 10.296875 -8.53125 C 9.328125 -8.53125 8.429688 -8.132812 7.609375 -7.34375 C 6.785156 -6.550781 6.109375 -5.675781 5.578125 -4.71875 C 5.054688 -3.757812 4.796875 -3.144531 4.796875 -2.875 L 4.796875 -2.6875 L 13.09375 -2.6875 L 13.09375 -4.953125 C 13.09375 -5.960938 12.84375 -6.8125 12.34375 -7.5 C 11.851562 -8.1875 11.171875 -8.53125 10.296875 -8.53125 Z M 10.296875 -8.53125 "/></g></g></g><g fill="#ffffff" fill-opacity="1"><g transform="translate(77.842553, 264.749983)"><g><path d="M 8.265625 -11.203125 C 9.773438 -11.203125 10.9375 -10.976562 11.75 -10.53125 C 12.570312 -10.09375 13.125 -9.46875 13.40625 -8.65625 C 13.695312 -7.851562 13.84375 -6.800781 13.84375 -5.5 L 13.84375 0 L 0 0 L 0 -2.6875 L 3.4375 -2.6875 C 3.226562 -3.738281 3.125 -4.671875 3.125 -5.484375 C 3.125 -6.285156 3.203125 -7.144531 3.359375 -8.0625 C 3.523438 -8.988281 3.710938 -9.789062 3.921875 -10.46875 C 4.316406 -10.664062 4.898438 -10.835938 5.671875 -10.984375 C 6.453125 -11.128906 7.316406 -11.203125 8.265625 -11.203125 Z M 5.984375 -5.484375 C 5.984375 -4.984375 6.015625 -4.472656 6.078125 -3.953125 C 6.148438 -3.429688 6.222656 -3.007812 6.296875 -2.6875 L 10.890625 -2.6875 L 10.890625 -5.5625 C 10.890625 -6.59375 10.6875 -7.347656 10.28125 -7.828125 C 9.882812 -8.316406 9.113281 -8.5625 7.96875 -8.5625 C 7.40625 -8.5625 6.847656 -8.5 6.296875 -8.375 C 6.085938 -7.28125 5.984375 -6.316406 5.984375 -5.484375 Z M 5.984375 -5.484375 "/></g></g></g><g fill="#ffffff" fill-opacity="1"><g transform="translate(92.777893, 264.749983)"><g/></g></g><g fill="#ffffff" fill-opacity="1"><g transform="translate(97.617027, 264.749983)"><g><path d="M 14.015625 -2.6875 L 14.015625 0 L 8.78125 0 C 8.394531 -0.113281 7.957031 -0.210938 7.46875 -0.296875 C 6.988281 -0.390625 6.5625 -0.4375 6.1875 -0.4375 C 5.445312 -0.4375 4.867188 -0.242188 4.453125 0.140625 C 4.035156 0.523438 3.828125 1.09375 3.828125 1.84375 C 3.828125 2.59375 4.050781 3.191406 4.5 3.640625 C 4.945312 4.085938 5.625 4.3125 6.53125 4.3125 C 6.925781 4.3125 7.507812 4.273438 8.28125 4.203125 C 9.0625 4.128906 9.859375 4.023438 10.671875 3.890625 L 11 6.140625 C 10.28125 6.347656 9.4375 6.535156 8.46875 6.703125 C 7.5 6.867188 6.65625 6.953125 5.9375 6.953125 C 4.320312 6.953125 3.070312 6.476562 2.1875 5.53125 C 1.3125 4.582031 0.875 3.289062 0.875 1.65625 C 0.875 0.144531 1.265625 -1.007812 2.046875 -1.8125 C 2.835938 -2.613281 4.003906 -3.015625 5.546875 -3.015625 C 6.128906 -3.015625 6.707031 -2.96875 7.28125 -2.875 C 7.863281 -2.78125 8.363281 -2.664062 8.78125 -2.53125 L 8.78125 -6.8125 C 8.78125 -7.445312 8.644531 -7.921875 8.375 -8.234375 C 8.101562 -8.554688 7.632812 -8.71875 6.96875 -8.71875 C 5.625 -8.664062 4.453125 -8.617188 3.453125 -8.578125 L 2.328125 -8.53125 L 2.25 -10.5 C 3.007812 -10.695312 3.929688 -10.863281 5.015625 -11 C 6.097656 -11.144531 7.015625 -11.21875 7.765625 -11.21875 C 9.140625 -11.21875 10.140625 -10.925781 10.765625 -10.34375 C 11.390625 -9.769531 11.707031 -8.851562 11.71875 -7.59375 L 11.71875 -2.6875 Z M 14.015625 -2.6875 "/></g></g></g><g fill="#ffffff" fill-opacity="1"><g transform="translate(111.629424, 264.749983)"><g><path d="M 17.890625 -2.6875 L 17.890625 0 L 0 0 L 0 -2.6875 L 1.84375 -2.6875 L 1.84375 -15.40625 L 4.796875 -15.40625 L 4.796875 -7.484375 C 5.453125 -8.304688 6.046875 -8.972656 6.578125 -9.484375 C 7.117188 -9.992188 7.75 -10.410156 8.46875 -10.734375 C 9.1875 -11.054688 10.015625 -11.21875 10.953125 -11.21875 C 12.804688 -11.21875 14.113281 -10.648438 14.875 -9.515625 C 15.644531 -8.378906 16.03125 -7.046875 16.03125 -5.515625 L 16.03125 -2.6875 Z M 10.296875 -8.53125 C 9.328125 -8.53125 8.429688 -8.132812 7.609375 -7.34375 C 6.785156 -6.550781 6.109375 -5.675781 5.578125 -4.71875 C 5.054688 -3.757812 4.796875 -3.144531 4.796875 -2.875 L 4.796875 -2.6875 L 13.09375 -2.6875 L 13.09375 -4.953125 C 13.09375 -5.960938 12.84375 -6.8125 12.34375 -7.5 C 11.851562 -8.1875 11.171875 -8.53125 10.296875 -8.53125 Z M 10.296875 -8.53125 "/></g></g></g><g fill="#ffffff" fill-opacity="1"><g transform="translate(129.513379, 264.749983)"><g><path d="M 16.9375 -11.015625 C 17.101562 -10.078125 17.25 -9.125 17.375 -8.15625 C 17.5 -7.1875 17.5625 -6.503906 17.5625 -6.109375 L 17.5625 0 L 13.03125 0 C 12.539062 0 12.070312 -0.078125 11.625 -0.234375 C 11.175781 -0.398438 10.8125 -0.59375 10.53125 -0.8125 C 9.945312 -0.269531 9.21875 0 8.34375 0 L 0 0 L 0 -2.6875 L 3.359375 -2.6875 L 3.359375 -9.90625 L 6.3125 -9.90625 L 6.3125 -2.6875 L 7.328125 -2.6875 C 7.878906 -2.6875 8.304688 -2.910156 8.609375 -3.359375 C 8.910156 -3.804688 9.0625 -4.378906 9.0625 -5.078125 L 9.0625 -9.90625 L 12.015625 -9.90625 L 12.015625 -5.078125 C 12.015625 -4.328125 11.941406 -3.660156 11.796875 -3.078125 C 11.921875 -2.972656 12.085938 -2.878906 12.296875 -2.796875 C 12.515625 -2.722656 12.734375 -2.6875 12.953125 -2.6875 L 14.609375 -2.6875 L 14.609375 -5.703125 C 14.609375 -6.640625 14.59375 -7.429688 14.5625 -8.078125 C 14.53125 -8.734375 14.460938 -9.675781 14.359375 -10.90625 Z M 16.9375 -11.015625 "/></g></g></g><g fill="#ffffff" fill-opacity="1"><g transform="translate(148.386013, 264.749983)"><g><path d="M 1.765625 -15.40625 L 4.703125 -15.40625 L 4.703125 0 L 1.765625 0 Z M 1.765625 -15.40625 "/></g></g></g><g fill="#ffffff" fill-opacity="1"><g transform="translate(155.072818, 264.749983)"><g/></g></g><g fill="#ffffff" fill-opacity="1"><g transform="translate(159.911952, 264.749983)"><g><path d="M 13.171875 -2.6875 L 13.171875 0 L 0.875 0 L 0.875 -2.6875 L 7.9375 -2.6875 L 7.9375 -3.46875 C 7.9375 -5.382812 7.578125 -6.75 6.859375 -7.5625 C 6.140625 -8.375 5.285156 -8.78125 4.296875 -8.78125 L 2.0625 -8.78125 L 1.84375 -11.09375 C 2.300781 -11.1875 2.816406 -11.273438 3.390625 -11.359375 C 3.972656 -11.453125 4.507812 -11.5 5 -11.5 C 6.164062 -11.5 7.191406 -11.207031 8.078125 -10.625 C 8.972656 -10.050781 9.664062 -9.1875 10.15625 -8.03125 C 10.644531 -6.875 10.890625 -5.453125 10.890625 -3.765625 L 10.890625 -2.6875 Z M 13.171875 -2.6875 "/></g></g></g><g fill="#ffffff" fill-opacity="1"><g transform="translate(173.08845, 264.749983)"><g><path d="M 0 0 Z M 6.21875 -11 L 6.21875 0 L 0 0 L 0 -2.6875 L 3.28125 -2.6875 L 3.28125 -11 Z M 1.96875 1.765625 L 4.234375 1.765625 L 4.234375 4.515625 L 1.96875 4.515625 Z M 5.3125 1.765625 L 7.578125 1.765625 L 7.578125 4.515625 L 5.3125 4.515625 Z M 5.3125 1.765625 "/></g></g></g><g fill="#ffffff" fill-opacity="1"><g transform="translate(180.853071, 264.749983)"><g><path d="M 2.484375 5.453125 C 2.296875 5.453125 1.757812 5.425781 0.875 5.375 L 0.875 2.734375 L 1.625 2.765625 C 2.15625 2.765625 2.550781 2.554688 2.8125 2.140625 C 3.082031 1.722656 3.21875 1.132812 3.21875 0.375 L 3.21875 -11 L 6.15625 -11 L 6.15625 -0.125 C 6.15625 1.632812 5.847656 3.003906 5.234375 3.984375 C 4.628906 4.960938 3.710938 5.453125 2.484375 5.453125 Z M 2.484375 5.453125 "/></g></g></g><g fill="#ffffff" fill-opacity="1"><g transform="translate(188.331739, 264.749983)"><g><path d="M 13.75 0 L 10.984375 0 C 10.660156 3.632812 9.132812 5.453125 6.40625 5.453125 C 5.613281 5.453125 4.335938 5.3125 2.578125 5.03125 L 2.578125 2.375 C 4.335938 2.632812 5.523438 2.765625 6.140625 2.765625 C 6.609375 2.765625 6.972656 2.679688 7.234375 2.515625 C 7.503906 2.359375 7.703125 2.082031 7.828125 1.6875 C 7.953125 1.289062 8.015625 0.726562 8.015625 0 L 5.453125 0 C 2.421875 0 0.90625 -1.710938 0.90625 -5.140625 C 0.90625 -6.890625 1.097656 -8.21875 1.484375 -9.125 C 1.867188 -10.039062 2.414062 -10.65625 3.125 -10.96875 C 3.84375 -11.28125 4.78125 -11.4375 5.9375 -11.4375 C 6.789062 -11.4375 7.691406 -11.378906 8.640625 -11.265625 C 9.597656 -11.160156 10.398438 -11.035156 11.046875 -10.890625 L 11.046875 -2.6875 L 13.75 -2.6875 Z M 3.84375 -5.328125 C 3.84375 -4.578125 4.003906 -3.945312 4.328125 -3.4375 C 4.648438 -2.9375 5.296875 -2.6875 6.265625 -2.6875 L 8.09375 -2.6875 L 8.09375 -8.640625 C 7.539062 -8.710938 7.003906 -8.75 6.484375 -8.75 C 5.867188 -8.75 5.378906 -8.664062 5.015625 -8.5 C 4.648438 -8.332031 4.363281 -8.003906 4.15625 -7.515625 C 3.945312 -7.023438 3.84375 -6.296875 3.84375 -5.328125 Z M 3.84375 -5.328125 "/></g></g></g><g fill="#ffffff" fill-opacity="1"><g transform="translate(202.080167, 264.749983)"><g><path d="M 0 0 Z M 6.21875 -11 L 6.21875 0 L 0 0 L 0 -2.6875 L 3.28125 -2.6875 L 3.28125 -11 Z M 1.96875 -15.796875 L 4.234375 -15.796875 L 4.234375 -13.046875 L 1.96875 -13.046875 Z M 5.3125 -15.796875 L 7.578125 -15.796875 L 7.578125 -13.046875 L 5.3125 -13.046875 Z M 5.3125 -15.796875 "/></g></g></g><g fill="#ffffff" fill-opacity="1"><g transform="translate(209.844788, 264.749983)"><g/></g></g><g fill="#ffffff" fill-opacity="1"><g transform="translate(214.683922, 264.749983)"><g><path d="M 5.9375 -11.4375 C 6.789062 -11.4375 7.691406 -11.378906 8.640625 -11.265625 C 9.597656 -11.160156 10.398438 -11.035156 11.046875 -10.890625 L 11.046875 -1.9375 C 11.046875 -0.726562 10.953125 0.394531 10.765625 1.4375 C 10.585938 2.488281 10.15625 3.421875 9.46875 4.234375 C 8.789062 5.046875 7.769531 5.453125 6.40625 5.453125 C 5.613281 5.453125 4.335938 5.3125 2.578125 5.03125 L 2.578125 2.375 C 4.335938 2.632812 5.523438 2.765625 6.140625 2.765625 C 6.609375 2.765625 6.972656 2.679688 7.234375 2.515625 C 7.503906 2.359375 7.703125 2.082031 7.828125 1.6875 C 7.953125 1.289062 8.015625 0.726562 8.015625 0 L 5.453125 0 C 2.421875 0 0.90625 -1.710938 0.90625 -5.140625 C 0.90625 -6.890625 1.097656 -8.21875 1.484375 -9.125 C 1.867188 -10.039062 2.414062 -10.65625 3.125 -10.96875 C 3.84375 -11.28125 4.78125 -11.4375 5.9375 -11.4375 Z M 3.84375 -5.328125 C 3.84375 -4.578125 4.003906 -3.945312 4.328125 -3.4375 C 4.648438 -2.9375 5.296875 -2.6875 6.265625 -2.6875 L 8.09375 -2.6875 L 8.09375 -8.640625 C 7.539062 -8.710938 7.003906 -8.75 6.484375 -8.75 C 5.867188 -8.75 5.378906 -8.664062 5.015625 -8.5 C 4.648438 -8.332031 4.363281 -8.003906 4.15625 -7.515625 C 3.945312 -7.023438 3.84375 -6.296875 3.84375 -5.328125 Z M 3.84375 -5.328125 "/></g></g></g><g fill="#ffffff" fill-opacity="1"><g transform="translate(226.825759, 264.749983)"><g/></g></g><g fill="#ffffff" fill-opacity="1"><g transform="translate(231.664893, 264.749983)"><g><path d="M 14.125 -2.6875 L 14.125 0 L 11.234375 0 C 10.503906 0 9.769531 -0.078125 9.03125 -0.234375 C 8.289062 -0.398438 7.582031 -0.640625 6.90625 -0.953125 L 5.5625 -0.390625 C 4.519531 -0.191406 4 0.550781 4 1.84375 C 4 3.488281 4.84375 4.3125 6.53125 4.3125 C 6.925781 4.3125 7.507812 4.273438 8.28125 4.203125 C 9.0625 4.128906 9.859375 4.023438 10.671875 3.890625 L 11 6.140625 L 10.203125 6.34375 C 9.515625 6.507812 8.773438 6.648438 7.984375 6.765625 C 7.203125 6.890625 6.519531 6.953125 5.9375 6.953125 C 4.320312 6.953125 3.070312 6.476562 2.1875 5.53125 C 1.3125 4.582031 0.875 3.289062 0.875 1.65625 C 0.875 0.40625 1.140625 -0.597656 1.671875 -1.359375 C 2.210938 -2.128906 3.007812 -2.628906 4.0625 -2.859375 C 3.070312 -3.765625 2.300781 -4.582031 1.75 -5.3125 C 1.195312 -6.050781 0.914062 -6.816406 0.90625 -7.609375 L 0.859375 -9.546875 C 1.546875 -9.984375 2.445312 -10.378906 3.5625 -10.734375 C 4.675781 -11.085938 5.773438 -11.265625 6.859375 -11.265625 C 7.929688 -11.265625 9.035156 -11.085938 10.171875 -10.734375 C 11.304688 -10.378906 12.234375 -9.984375 12.953125 -9.546875 L 12.875 -7.609375 C 12.875 -6.804688 12.601562 -6.050781 12.0625 -5.34375 C 11.53125 -4.644531 10.742188 -3.816406 9.703125 -2.859375 C 10.242188 -2.742188 10.75 -2.6875 11.21875 -2.6875 Z M 6.90625 -4 C 7.988281 -4.675781 8.78125 -5.363281 9.28125 -6.0625 C 9.789062 -6.769531 10.046875 -7.425781 10.046875 -8.03125 C 8.960938 -8.394531 7.910156 -8.578125 6.890625 -8.578125 C 5.878906 -8.578125 4.84375 -8.394531 3.78125 -8.03125 C 3.78125 -7.414062 4.046875 -6.738281 4.578125 -6 C 5.109375 -5.269531 5.882812 -4.601562 6.90625 -4 Z M 6.90625 -4 "/></g></g></g><g fill="#ffffff" fill-opacity="1"><g transform="translate(245.787268, 264.749983)"><g><path d="M 0 0 Z M 9.53125 -2.6875 L 9.53125 0 L 0 0 L 0 -2.6875 L 3.28125 -2.6875 L 3.28125 -11 L 6.21875 -11 L 6.21875 -2.6875 Z M 1.90625 1.765625 L 4.171875 1.765625 L 4.171875 4.515625 L 1.90625 4.515625 Z M 5.25 1.765625 L 7.515625 1.765625 L 7.515625 4.515625 L 5.25 4.515625 Z M 5.25 1.765625 "/></g></g></g><g fill="#ffffff" fill-opacity="1"><g transform="translate(255.312184, 264.749983)"><g><path d="M 0 0 Z M 9.53125 -2.6875 L 9.53125 0 L 0 0 L 0 -2.6875 L 3.28125 -2.6875 L 3.28125 -11 L 6.21875 -11 L 6.21875 -2.6875 Z M 3.359375 -15.90625 L 6.0625 -15.90625 L 6.0625 -13.046875 L 3.359375 -13.046875 Z M 3.359375 -15.90625 "/></g></g></g><g fill="#ffffff" fill-opacity="1"><g transform="translate(264.837101, 264.749983)"><g><path d="M 18.9375 -2.6875 L 18.9375 0 L 0 0 L 0 -2.6875 L 2.90625 -2.6875 L 2.90625 -11 L 5.859375 -11 L 5.859375 -7.484375 C 6.515625 -8.304688 7.109375 -8.972656 7.640625 -9.484375 C 8.179688 -9.992188 8.8125 -10.410156 9.53125 -10.734375 C 10.25 -11.054688 11.078125 -11.21875 12.015625 -11.21875 C 13.859375 -11.21875 15.164062 -10.648438 15.9375 -9.515625 C 16.707031 -8.378906 17.09375 -7.046875 17.09375 -5.515625 L 17.09375 -2.6875 Z M 11.328125 -8.53125 C 10.285156 -8.53125 9.269531 -8.039062 8.28125 -7.0625 C 7.289062 -6.09375 6.484375 -4.972656 5.859375 -3.703125 L 5.859375 -2.6875 L 14.140625 -2.6875 L 14.140625 -4.953125 C 14.140625 -5.953125 13.894531 -6.796875 13.40625 -7.484375 C 12.914062 -8.179688 12.222656 -8.53125 11.328125 -8.53125 Z M 11.328125 -8.53125 "/></g></g></g><g fill="#ffffff" fill-opacity="1"><g transform="translate(283.776935, 264.749983)"><g><path d="M 0 0 Z M 6.21875 -11 L 6.21875 0 L 0 0 L 0 -2.6875 L 3.28125 -2.6875 L 3.28125 -11 Z M 1.96875 -15.796875 L 4.234375 -15.796875 L 4.234375 -13.046875 L 1.96875 -13.046875 Z M 5.3125 -15.796875 L 7.578125 -15.796875 L 7.578125 -13.046875 L 5.3125 -13.046875 Z M 5.3125 -15.796875 "/></g></g></g></svg>